<?xml version="1.0" encoding="UTF-8" standalone="no"?><!DOCTYPE svg PUBLIC "-//W3C//DTD SVG 1.1//EN" "http://www.w3.org/Graphics/SVG/1.1/DTD/svg11.dtd"><svg width="100%" height="100%" viewBox="0 0 2853 2608" version="1.1" xmlns="http://www.w3.org/2000/svg" xmlns:xlink="http://www.w3.org/1999/xlink" xml:space="preserve" xmlns:serif="http://www.serif.com/" style="fill-rule:evenodd;clip-rule:evenodd;stroke-linecap:round;stroke-miterlimit:10;"><path d="M972.471,791.437c-0,42.106 -17.066,80.225 -44.659,107.819c-27.594,27.594 -65.713,44.659 -107.819,44.659c-42.106,0 -80.225,-17.065 -107.819,-44.659c-27.594,-27.594 -44.659,-65.713 -44.659,-107.819c-0,-42.106 17.065,-80.225 44.659,-107.819c27.594,-27.593 65.713,-44.659 107.819,-44.659c42.106,0 80.225,17.066 107.819,44.659c27.593,27.594 44.659,65.713 44.659,107.819" style="fill:#ece7e1;fill-rule:nonzero;"/><path d="M972.471,791.437c-0,42.106 -17.066,80.225 -44.659,107.819c-27.594,27.594 -65.713,44.659 -107.819,44.659c-42.106,0 -80.225,-17.065 -107.819,-44.659c-27.594,-27.594 -44.659,-65.713 -44.659,-107.819c-0,-42.106 17.065,-80.225 44.659,-107.819c27.594,-27.593 65.713,-44.659 107.819,-44.659c42.106,0 80.225,17.066 107.819,44.659c27.593,27.594 44.659,65.713 44.659,107.819Z" style="fill:none;fill-rule:nonzero;stroke:#000;stroke-width:9.38px;"/><path d="M909.551,668.038c-22.334,-7.165 -47.125,-8.915 -70.806,-4.922c-23.685,3.991 -46.257,13.725 -64.153,29.528c-17.519,15.472 -28.516,36.7 -33.104,59.432c-4.59,22.728 -2.778,46.953 5.316,68.422c4.284,11.359 10.572,21.859 18.672,30.6c8.1,8.74 18.016,15.721 29.553,20.037c17.209,6.441 36.719,5.775 54.219,-0.491c17.497,-6.262 32.984,-18.128 42.15,-34.087c8.681,-15.116 10.081,-35.106 4.487,-52.097c-5.593,-16.987 -18.175,-30.969 -37.465,-34.066c-17.532,-2.815 -31.438,5.032 -39.188,17.282c-7.747,12.247 -9.334,28.897 -2.231,43.69" style="fill:none;fill-rule:nonzero;stroke:#070707;stroke-width:9.38px;"/><path d="M650.17,857.113c11.506,-5.24 26.078,-11.406 43.353,-17.581c17.278,-6.172 37.263,-12.353 59.597,-17.619c11.391,-2.687 45.175,-10.268 93.919,-12.925c48.747,-2.653 112.456,-0.381 183.697,16.65c17.084,4.082 37.715,9.76 60.95,17.829c23.234,8.065 49.068,18.525 76.553,32.171c-16.347,23.95 -34.466,53.338 -52,88.022c-17.538,34.685 -34.491,74.666 -48.507,119.803c-18.968,61.075 -28.406,118.207 -32.415,168.438c-4.01,50.231 -2.588,93.559 0.162,127.031c0,0 -42.293,11.735 -97.125,46.7c-54.828,34.969 -122.197,93.169 -172.347,186.1c0,0 24.26,-99.615 21.91,-243.753c-2.35,-144.134 -31.306,-332.787 -137.747,-510.866Z" style="fill:#e2dcfe;fill-rule:nonzero;stroke:#070707;stroke-width:9.38px;"/><path d="M2430.07,1322.12c-0.487,-27.409 -3.356,-119.897 -36.093,-230.425c-32.738,-110.531 -95.344,-239.103 -215.31,-338.687c-43.769,-36.335 -88.353,-63.147 -130.237,-83.054c-41.882,-19.903 -81.063,-32.9 -114.025,-41.603c-150.744,-38.209 -302.95,-30.656 -438.269,15.957c-135.319,46.612 -253.75,132.284 -336.931,250.312c-85.675,121.556 -116.175,252.197 -123.991,358.956c-7.812,106.76 7.059,189.638 12.128,215.666c230.456,-24.522 460.91,-49.041 691.366,-73.563c230.453,-24.518 460.909,-49.04 691.362,-73.559Z" style="fill:#ece7e1;fill-rule:nonzero;stroke:#000;stroke-width:9.38px;"/><path d="M1787.62,1390.48c107.075,-11.394 214.15,-22.784 321.225,-34.178c107.072,-11.394 214.147,-22.784 321.222,-34.178c-0.488,-27.41 -3.357,-119.897 -36.094,-230.425c-32.738,-110.531 -95.344,-239.103 -215.309,-338.688c-43.769,-36.334 -88.354,-63.147 -130.235,-83.05c-41.884,-19.906 -81.065,-32.903 -114.028,-41.603c-25.156,-6.378 -50.353,-11.475 -75.506,-15.325c-25.153,-3.853 -50.263,-6.459 -75.241,-7.865c-32.347,57.353 -80.081,161.543 -95.365,297.465c-15.285,135.922 1.878,303.575 99.331,487.847Z" style="fill:#c7bef8;fill-rule:nonzero;stroke:#070707;stroke-width:9.38px;"/><path d="M1908.67,622.293c0,0 15.675,54.594 11.563,126.575c-4.109,71.985 -28.003,161.356 -107.138,230.919c0,-0 20.641,37.3 20.325,90.122c-0.318,52.819 -21.59,121.159 -105.421,183.237" style="fill:none;fill-rule:nonzero;stroke:#070707;stroke-width:9.38px;"/><path d="M1411.87,679.502c-50.031,24.768 -96.846,55.35 -139.331,91.337c-42.484,35.988 -80.634,77.384 -113.337,123.784c-85.672,121.557 -116.172,252.197 -123.988,358.957c-7.815,106.759 7.056,189.637 12.128,215.665c69.566,-7.403 139.135,-14.803 208.703,-22.206c69.569,-7.403 139.138,-14.803 208.707,-22.206c53.131,-149.738 48.653,-313.669 26.522,-451.366c-22.132,-137.7 -61.919,-249.165 -79.404,-293.965Z" style="fill:#c7bef8;fill-rule:nonzero;stroke:#070707;stroke-width:9.38px;"/><path d="M1296.53,751.443c-1.385,8.837 -8.066,55.219 -1.607,109.115c6.463,53.897 26.066,115.31 77.25,154.207c6.444,4.893 13.841,9.778 22.325,14.337c8.485,4.556 18.05,8.785 28.832,12.363c-1.569,2.737 -15.25,27.537 -22.41,62.343c-7.162,34.81 -7.806,79.625 16.706,122.407c12.163,21.228 27.607,36.868 42.172,48.19c14.566,11.319 28.253,18.316 36.897,22.25" style="fill:none;fill-rule:nonzero;stroke:#070707;stroke-width:9.38px;"/><path d="M1017.3,1945.28l155.987,258.106c-42.209,31.403 -84.284,62.988 -126.441,94.466c-42.156,31.475 -84.387,62.847 -126.912,93.828c-35.531,25.884 -71.444,51.134 -110.094,68.662c-38.647,17.529 -80.037,27.332 -126.519,22.322c-20.125,-2.168 -41.543,-7.493 -61.487,-14.65c-19.944,-7.156 -38.416,-16.147 -52.638,-25.647c-2.003,-1.337 -4.062,-2.768 -5.615,-3.865c-1.556,-1.094 -2.613,-1.856 -2.613,-1.856c-49.528,-33.191 -77.181,-76.507 -91.04,-122.304c-13.863,-45.8 -13.938,-94.081 -8.316,-137.209c4.228,-32.425 12.109,-64.159 23.25,-94.728c11.144,-30.569 25.547,-59.972 42.825,-87.731l252.844,-406.282c10.006,-16.078 20.703,-31.715 32.128,-46.796c11.425,-15.082 23.578,-29.604 36.497,-43.45c50.487,-54.113 107.331,-87.322 169.328,-107.804c61.997,-20.481 129.144,-28.237 200.231,-31.446c102.338,-4.622 219.922,6.44 323.188,45.159c103.265,38.719 192.215,105.097 237.284,211.106c5.753,13.528 11.669,26.985 17.694,40.394c6.025,13.409 12.156,26.769 18.34,40.106l135.841,292.903l135.838,292.907c10.546,22.737 16.803,47.112 18.406,71.731c1.603,24.622 -1.45,49.49 -9.516,73.222c-5.006,14.731 -11.487,28.056 -19.037,40.106c-7.553,12.053 -16.172,22.828 -25.453,32.453c-35.154,36.463 -81.207,56.863 -128.822,60.853c-47.619,3.991 -96.794,-8.428 -138.194,-37.603c-78.663,-55.441 -172.688,-143.794 -247.044,-218.287c-74.359,-74.491 -129.05,-135.125 -129.05,-135.125l94.788,-115.638l94.784,-115.637c0.319,-0.388 0.338,-0.872 0.15,-1.257c-0.187,-0.387 -0.578,-0.675 -1.078,-0.665l-289.769,4.828l-289.765,4.828Z" style="fill:#c7bef8;fill-rule:nonzero;stroke:#070707;stroke-width:9.38px;"/><path d="M1926.84,2113.68c-0,28.194 -11.428,53.719 -29.903,72.194c-18.478,18.478 -44,29.903 -72.194,29.903c-28.194,-0 -53.719,-11.425 -72.197,-29.903c-18.475,-18.475 -29.903,-44 -29.903,-72.194c-0,-28.194 11.428,-53.719 29.903,-72.194c18.478,-18.478 44.003,-29.903 72.197,-29.903c28.194,0 53.716,11.425 72.194,29.903c18.475,18.475 29.903,44 29.903,72.194" style="fill:#e2dcfe;fill-rule:nonzero;"/><path d="M1926.84,2113.68c-0,28.194 -11.428,53.719 -29.903,72.194c-18.478,18.478 -44,29.903 -72.194,29.903c-28.194,-0 -53.719,-11.425 -72.197,-29.903c-18.475,-18.475 -29.903,-44 -29.903,-72.194c-0,-28.194 11.428,-53.719 29.903,-72.194c18.478,-18.478 44.003,-29.903 72.197,-29.903c28.194,0 53.716,11.425 72.194,29.903c18.475,18.475 29.903,44 29.903,72.194Z" style="fill:none;fill-rule:nonzero;stroke:#000;stroke-width:9.38px;"/><path d="M1538.12,1755.6c-0,28.194 -11.428,53.719 -29.903,72.194c-18.479,18.478 -44.004,29.903 -72.197,29.903c-28.191,0 -53.716,-11.425 -72.194,-29.903c-18.475,-18.475 -29.903,-44 -29.903,-72.194c-0,-28.193 11.428,-53.718 29.903,-72.193c18.478,-18.479 44.003,-29.904 72.194,-29.904c28.193,0 53.718,11.425 72.197,29.904c18.475,18.475 29.903,44 29.903,72.193" style="fill:#e2dcfe;fill-rule:nonzero;"/><path d="M1538.12,1755.6c-0,28.194 -11.428,53.719 -29.903,72.194c-18.479,18.478 -44.004,29.903 -72.197,29.903c-28.191,0 -53.716,-11.425 -72.194,-29.903c-18.475,-18.475 -29.903,-44 -29.903,-72.194c-0,-28.193 11.428,-53.718 29.903,-72.193c18.478,-18.479 44.003,-29.904 72.194,-29.904c28.193,0 53.718,11.425 72.197,29.904c18.475,18.475 29.903,44 29.903,72.193Z" style="fill:none;fill-rule:nonzero;stroke:#000;stroke-width:9.38px;"/><path d="M749.143,2215.78c0,28.194 -11.428,53.719 -29.903,72.194c-18.478,18.478 -44.003,29.903 -72.193,29.903c-28.194,0 -53.719,-11.425 -72.197,-29.903c-18.475,-18.475 -29.903,-44 -29.903,-72.194c-0,-28.194 11.428,-53.719 29.903,-72.194c18.478,-18.478 44.003,-29.903 72.197,-29.903c28.19,0 53.715,11.425 72.193,29.903c18.475,18.475 29.903,44 29.903,72.194" style="fill:#e2dcfe;fill-rule:nonzero;"/><path d="M749.143,2215.78c0,28.194 -11.428,53.719 -29.903,72.194c-18.478,18.478 -44.003,29.903 -72.193,29.903c-28.194,0 -53.719,-11.425 -72.197,-29.903c-18.475,-18.475 -29.903,-44 -29.903,-72.194c-0,-28.194 11.428,-53.719 29.903,-72.194c18.478,-18.478 44.003,-29.903 72.197,-29.903c28.19,0 53.715,11.425 72.193,29.903c18.475,18.475 29.903,44 29.903,72.194Z" style="fill:none;fill-rule:nonzero;stroke:#000;stroke-width:9.38px;"/><path d="M1845.11,2462.16c-0,-28.193 -11.428,-53.718 -29.903,-72.193c-18.479,-18.479 -44.004,-29.904 -72.197,-29.904c-19.575,0 -37.857,5.51 -53.388,15.066c-15.531,9.553 -28.312,23.15 -36.878,39.322c22.353,20.244 44.913,39.912 67.047,58.159c22.134,18.247 43.844,35.069 64.497,49.625c4.309,3.035 8.706,5.882 13.175,8.544c4.472,2.663 9.015,5.144 13.619,7.456c10.44,-9.347 18.946,-20.809 24.843,-33.712c5.897,-12.903 9.185,-27.247 9.185,-42.363" style="fill:#e2dcfe;fill-rule:nonzero;"/><path d="M1845.11,2462.16c-0,-28.193 -11.428,-53.718 -29.903,-72.193c-18.479,-18.479 -44.004,-29.904 -72.197,-29.904c-19.575,0 -37.857,5.51 -53.388,15.066c-15.531,9.553 -28.312,23.15 -36.878,39.322c22.353,20.244 44.913,39.912 67.047,58.159c22.134,18.247 43.844,35.069 64.497,49.625c4.309,3.035 8.706,5.882 13.175,8.544c4.472,2.663 9.015,5.144 13.619,7.456c10.44,-9.347 18.946,-20.809 24.843,-33.712c5.897,-12.903 9.185,-27.247 9.185,-42.363Z" style="fill:none;fill-rule:nonzero;stroke:#000;stroke-width:9.38px;"/><path d="M972.471,1557.85c28.193,0 53.718,-11.428 72.193,-29.903c18.478,-18.478 29.907,-44 29.907,-72.194c-0,-14.306 -2.947,-27.922 -8.263,-40.278c-5.319,-12.356 -13.003,-23.453 -22.484,-32.722c-31.21,8.475 -61.203,19.775 -89.847,34.875c-28.641,15.097 -55.925,33.994 -81.716,57.656c4.556,23.519 17.185,44.163 34.885,58.922c17.7,14.763 40.471,23.644 65.325,23.644" style="fill:#dbcaf4;fill-rule:nonzero;"/><path d="M972.471,1557.85c28.193,0 53.718,-11.428 72.193,-29.903c18.478,-18.478 29.907,-44 29.907,-72.194c-0,-14.306 -2.947,-27.922 -8.263,-40.278c-5.319,-12.356 -13.003,-23.453 -22.484,-32.722c-31.21,8.475 -61.203,19.775 -89.847,34.875c-28.641,15.097 -55.925,33.994 -81.716,57.656c4.556,23.519 17.185,44.163 34.885,58.922c17.7,14.763 40.471,23.644 65.325,23.644Z" style="fill:none;fill-rule:nonzero;stroke:#000;stroke-width:9.38px;"/><path d="M1619.47,1557.85c18.707,0 36.235,-5.034 51.31,-13.819c15.072,-8.787 27.69,-21.325 36.581,-36.334c-23.781,-24.297 -50.797,-45.094 -80.109,-62.763c-29.313,-17.668 -60.922,-32.209 -93.894,-44.003c-5.053,7.919 -9.05,16.582 -11.781,25.782c-2.735,9.203 -4.204,18.946 -4.204,29.04c0,28.194 11.425,53.716 29.904,72.194c18.475,18.475 44,29.903 72.193,29.903" style="fill:#dbcaf4;fill-rule:nonzero;"/><path d="M1619.47,1557.85c18.707,0 36.235,-5.034 51.31,-13.819c15.072,-8.787 27.69,-21.325 36.581,-36.334c-23.781,-24.297 -50.797,-45.094 -80.109,-62.763c-29.313,-17.668 -60.922,-32.209 -93.894,-44.003c-5.053,7.919 -9.05,16.582 -11.781,25.782c-2.735,9.203 -4.204,18.946 -4.204,29.04c0,28.194 11.425,53.716 29.904,72.194c18.475,18.475 44,29.903 72.193,29.903Z" style="fill:none;fill-rule:nonzero;stroke:#000;stroke-width:9.38px;"/><path d="M988.838,2203.38c-28.194,-0 -53.719,11.428 -72.194,29.903c-18.478,18.478 -29.906,44 -29.906,72.193c-0,16.538 3.934,32.15 10.915,45.963c6.985,13.809 17.013,25.822 29.2,35.15c26.416,-19.284 52.729,-38.709 78.982,-58.213c26.256,-19.5 52.453,-39.078 78.643,-58.671c-7.25,-19.369 -20.209,-35.95 -36.831,-47.691c-16.625,-11.738 -36.909,-18.634 -58.809,-18.634" style="fill:#e2dcfe;fill-rule:nonzero;"/><path d="M988.838,2203.38c-28.194,-0 -53.719,11.428 -72.194,29.903c-18.478,18.478 -29.906,44 -29.906,72.193c-0,16.538 3.934,32.15 10.915,45.963c6.985,13.809 17.013,25.822 29.2,35.15c26.416,-19.284 52.729,-38.709 78.982,-58.213c26.256,-19.5 52.453,-39.078 78.643,-58.671c-7.25,-19.369 -20.209,-35.95 -36.831,-47.691c-16.625,-11.738 -36.909,-18.634 -58.809,-18.634Z" style="fill:none;fill-rule:nonzero;stroke:#000;stroke-width:9.38px;"/><path d="M759.047,1643.03c-23.612,99.878 -97.484,114.381 -165.453,103.915c-67.972,-10.462 -130.037,-45.896 -130.037,-45.896c-50.969,67.659 -108.522,89.812 -153.335,95.053c-44.812,5.237 -76.881,-6.441 -76.881,-6.441c-136.703,-349.328 -36.625,-588.759 97.631,-740.856c134.254,-152.1 302.685,-216.866 302.685,-216.866c-0,0 60.028,81.463 105.715,223.581c45.688,142.116 77.035,344.888 19.675,587.51" style="fill:#c7bef8;fill-rule:nonzero;"/><path d="M759.047,1643.03c-23.612,99.878 -97.484,114.381 -165.453,103.915c-67.972,-10.462 -130.037,-45.896 -130.037,-45.896c-50.969,67.659 -108.522,89.812 -153.335,95.053c-44.812,5.237 -76.881,-6.441 -76.881,-6.441c-136.703,-349.328 -36.625,-588.759 97.631,-740.856c134.254,-152.1 302.685,-216.866 302.685,-216.866c-0,0 60.028,81.463 105.715,223.581c45.688,142.116 77.035,344.888 19.675,587.51Z" style="fill:none;fill-rule:nonzero;stroke:#000;stroke-width:9.38px;"/><path d="M634.147,1513.59l-0,0.025l0.003,0.029l-0,0.025l0.003,0.025c0.553,11.318 -2.15,21.609 -7.113,30.293c-4.962,8.688 -12.184,15.766 -20.665,20.666c-8.482,4.897 -18.225,7.612 -28.228,7.569c-10,-0.041 -20.266,-2.844 -29.791,-8.982l-0.075,-0.046l-0.022,-0.016l-0.05,0.031l-0.022,0.016l-0.025,0.015c-9.528,6.138 -19.79,8.941 -29.794,8.982c-10.003,0.043 -19.743,-2.672 -28.225,-7.569c-8.484,-4.9 -15.703,-11.978 -20.668,-20.666c-4.963,-8.684 -7.666,-18.975 -7.11,-30.293l0,-0.025l0.003,-0.025l0,-0.054c-10.081,-5.178 -17.64,-12.665 -22.681,-21.309c-5.04,-8.641 -7.559,-18.437 -7.559,-28.231c-0,-9.794 2.519,-19.591 7.559,-28.231c5.041,-8.641 12.6,-16.129 22.681,-21.31l0,-0.053l-0.003,-0.025l0,-0.025c-0.556,-11.319 2.147,-21.609 7.11,-30.294c4.962,-8.687 12.184,-15.765 20.665,-20.665c8.485,-4.897 18.225,-7.613 28.228,-7.569c10.004,0.041 20.266,2.844 29.794,8.981l0.022,0.016l0.075,0.047l0.022,-0.016l0.05,-0.031l0.022,-0.016c9.528,-6.137 19.79,-8.94 29.794,-8.981c10.003,-0.044 19.746,2.672 28.228,7.569c8.481,4.9 15.703,11.978 20.665,20.665c4.963,8.685 7.666,18.975 7.113,30.294l-0.003,0.025l-0,0.025l-0.003,0.028l-0,0.025c10.081,5.178 17.64,12.666 22.681,21.31c5.04,8.64 7.562,18.434 7.562,28.231c0,9.794 -2.522,19.59 -7.562,28.231c-5.041,8.641 -12.6,16.128 -22.681,21.309Z" style="fill:#e2dcfe;fill-rule:nonzero;stroke:#070707;stroke-width:9.38px;"/><path d="M580.407,1464.05c-0,8.878 -3.597,16.915 -9.416,22.731c-5.819,5.819 -13.856,9.419 -22.734,9.419c-8.875,-0 -16.913,-3.6 -22.732,-9.419c-5.818,-5.816 -9.415,-13.853 -9.415,-22.731c-0,-8.878 3.597,-16.916 9.415,-22.731c5.819,-5.819 13.857,-9.419 22.732,-9.419c8.878,-0 16.915,3.6 22.734,9.419c5.819,5.815 9.416,13.853 9.416,22.731" style="fill:#ece7e1;fill-rule:nonzero;"/><path d="M580.407,1464.05c-0,8.878 -3.597,16.915 -9.416,22.731c-5.819,5.819 -13.856,9.419 -22.734,9.419c-8.875,-0 -16.913,-3.6 -22.732,-9.419c-5.818,-5.816 -9.415,-13.853 -9.415,-22.731c-0,-8.878 3.597,-16.916 9.415,-22.731c5.819,-5.819 13.857,-9.419 22.732,-9.419c8.878,-0 16.915,3.6 22.734,9.419c5.819,5.815 9.416,13.853 9.416,22.731Z" style="fill:none;fill-rule:nonzero;stroke:#000;stroke-width:9.38px;"/><path d="M712.331,1039.81c-8.878,-0 -16.915,-3.597 -22.731,-9.416c-5.819,-5.818 -9.416,-13.856 -9.416,-22.734c0,-8.475 3.282,-16.178 8.647,-21.913c5.363,-5.737 12.806,-9.506 21.128,-10.115c-6.143,-14.744 -12.268,-28.441 -18.225,-41.053c-5.959,-12.613 -11.75,-24.138 -17.222,-34.532c-3.59,0.51 -7.109,1.363 -10.509,2.541c-3.4,1.178 -6.678,2.675 -9.787,4.472c-8.482,4.897 -15.704,11.978 -20.666,20.662c-4.963,8.685 -7.666,18.975 -7.113,30.294l0.004,0.028l-0,0.025l0.003,0.025l-0,0.025c-10.082,5.182 -17.644,12.669 -22.682,21.31c-5.04,8.64 -7.562,18.437 -7.562,28.231c-0,9.797 2.522,19.591 7.562,28.234c5.038,8.641 12.6,16.128 22.682,21.307l-0,0.028l-0.003,0.025l-0,0.025l-0.004,0.028c-0.553,11.319 2.15,21.609 7.113,30.294c4.962,8.684 12.184,15.765 20.666,20.662c8.481,4.897 18.225,7.613 28.225,7.572c10.003,-0.044 20.268,-2.847 29.793,-8.984l0.05,-0.032l0.022,-0.012l0.025,-0.016l0.025,0.016l0.025,0.012l0.022,0.016l0.025,0.016c7.044,4.54 14.494,7.25 21.938,8.371c7.446,1.119 14.893,0.647 21.937,-1.178c-3.744,-14.487 -7.687,-28.481 -11.778,-41.968c-4.088,-13.488 -8.322,-26.469 -12.647,-38.932c-2.709,2.082 -5.756,3.747 -9.044,4.894c-3.29,1.147 -6.822,1.772 -10.503,1.772" style="fill:#e2dcfe;fill-rule:nonzero;"/><path d="M712.331,1039.81c-8.878,-0 -16.915,-3.597 -22.731,-9.416c-5.819,-5.818 -9.416,-13.856 -9.416,-22.734c0,-8.475 3.282,-16.178 8.647,-21.913c5.363,-5.737 12.806,-9.506 21.128,-10.115c-6.143,-14.744 -12.268,-28.441 -18.225,-41.053c-5.959,-12.613 -11.75,-24.138 -17.222,-34.532c-3.59,0.51 -7.109,1.363 -10.509,2.541c-3.4,1.178 -6.678,2.675 -9.787,4.472c-8.482,4.897 -15.704,11.978 -20.666,20.662c-4.963,8.685 -7.666,18.975 -7.113,30.294l0.004,0.028l-0,0.025l0.003,0.025l-0,0.025c-10.082,5.182 -17.644,12.669 -22.682,21.31c-5.04,8.64 -7.562,18.437 -7.562,28.231c-0,9.797 2.522,19.591 7.562,28.234c5.038,8.641 12.6,16.128 22.682,21.307l-0,0.028l-0.003,0.025l-0,0.025l-0.004,0.028c-0.553,11.319 2.15,21.609 7.113,30.294c4.962,8.684 12.184,15.765 20.666,20.662c8.481,4.897 18.225,7.613 28.225,7.572c10.003,-0.044 20.268,-2.847 29.793,-8.984l0.05,-0.032l0.022,-0.012l0.025,-0.016l0.025,0.016l0.025,0.012l0.022,0.016l0.025,0.016c7.044,4.54 14.494,7.25 21.938,8.371c7.446,1.119 14.893,0.647 21.937,-1.178c-3.744,-14.487 -7.687,-28.481 -11.778,-41.968c-4.088,-13.488 -8.322,-26.469 -12.647,-38.932c-2.709,2.082 -5.756,3.747 -9.044,4.894c-3.29,1.147 -6.822,1.772 -10.503,1.772Z" style="fill:none;fill-rule:nonzero;stroke:#070707;stroke-width:9.38px;"/><path d="M680.183,1007.66c0,8.878 3.597,16.916 9.416,22.731c5.818,5.819 13.856,9.419 22.731,9.419c3.684,0 7.216,-0.628 10.503,-1.772c3.291,-1.147 6.334,-2.812 9.044,-4.897c-3.578,-10.312 -7.213,-20.268 -10.878,-29.856c-3.663,-9.587 -7.353,-18.806 -11.041,-27.653c-8.322,0.609 -15.766,4.378 -21.128,10.113c-5.363,5.737 -8.647,13.437 -8.647,21.915" style="fill:#ece7e1;fill-rule:nonzero;"/><path d="M680.183,1007.66c0,8.878 3.597,16.916 9.416,22.731c5.818,5.819 13.856,9.419 22.731,9.419c3.684,0 7.216,-0.628 10.503,-1.772c3.291,-1.147 6.334,-2.812 9.044,-4.897c-3.578,-10.312 -7.213,-20.268 -10.878,-29.856c-3.663,-9.587 -7.353,-18.806 -11.041,-27.653c-8.322,0.609 -15.766,4.378 -21.128,10.113c-5.363,5.737 -8.647,13.437 -8.647,21.915Z" style="fill:none;fill-rule:nonzero;stroke:#000;stroke-width:9.38px;"/><path d="M321.079,1117.04c8.825,0 16.813,3.578 22.597,9.36c5.784,5.784 9.359,13.771 9.359,22.596c0,8.825 -3.575,16.816 -9.359,22.6c-5.784,5.782 -13.772,9.36 -22.597,9.36c-8.825,-0 -16.816,-3.578 -22.597,-9.36c-5.784,-5.784 -9.362,-13.775 -9.362,-22.6c-0,-8.825 3.578,-16.812 9.362,-22.596c5.781,-5.782 13.772,-9.36 22.597,-9.36m-85.378,81.203l-0,0.025l-0.003,0.028l-0,0.025l-0.003,0.025c-0.55,11.254 2.137,21.482 7.072,30.116c4.931,8.631 12.109,15.669 20.54,20.541c8.431,4.868 18.116,7.565 28.06,7.525c9.943,-0.044 20.146,-2.828 29.615,-8.928l0.05,-0.032l0.022,-0.015l0.025,-0.016l0.025,0.016l0.022,0.015l0.05,0.032c9.469,6.1 19.672,8.884 29.616,8.928c9.943,0.043 19.628,-2.657 28.059,-7.525c8.428,-4.872 15.609,-11.91 20.541,-20.541c4.934,-8.634 7.621,-18.866 7.068,-30.116l0,-0.05l-0.003,-0.028l0,-0.025c10.019,-5.15 17.535,-12.59 22.547,-21.181c5.009,-8.591 7.516,-18.328 7.516,-28.066c-0,-9.734 -2.507,-19.471 -7.516,-28.062c-5.012,-8.591 -12.528,-16.034 -22.547,-21.181l0,-0.028l0.003,-0.025l0,-0.05c0.553,-11.254 -2.134,-21.482 -7.068,-30.116c-4.935,-8.634 -12.113,-15.672 -20.544,-20.541c-6.369,-3.678 -13.453,-6.115 -20.825,-7.065c-7.369,-0.953 -15.028,-0.422 -22.544,1.843c-19.459,21.641 -38.25,45.094 -55.772,70.422c-17.522,25.328 -33.775,52.532 -48.153,81.682c0.669,0.415 1.344,0.821 2.034,1.218c0.691,0.397 1.394,0.782 2.113,1.15Z" style="fill:#e2dcfe;fill-rule:nonzero;"/><path d="M321.079,1117.04c8.825,0 16.813,3.578 22.597,9.36c5.784,5.784 9.359,13.771 9.359,22.596c0,8.825 -3.575,16.816 -9.359,22.6c-5.784,5.782 -13.772,9.36 -22.597,9.36c-8.825,-0 -16.816,-3.578 -22.597,-9.36c-5.784,-5.784 -9.362,-13.775 -9.362,-22.6c-0,-8.825 3.578,-16.812 9.362,-22.596c5.781,-5.782 13.772,-9.36 22.597,-9.36Zm-85.378,81.203l-0,0.025l-0.003,0.028l-0,0.025l-0.003,0.025c-0.55,11.254 2.137,21.482 7.072,30.116c4.931,8.631 12.109,15.669 20.54,20.541c8.431,4.868 18.116,7.565 28.06,7.525c9.943,-0.044 20.146,-2.828 29.615,-8.928l0.05,-0.032l0.022,-0.015l0.025,-0.016l0.025,0.016l0.022,0.015l0.05,0.032c9.469,6.1 19.672,8.884 29.616,8.928c9.943,0.043 19.628,-2.657 28.059,-7.525c8.428,-4.872 15.609,-11.91 20.541,-20.541c4.934,-8.634 7.621,-18.866 7.068,-30.116l0,-0.05l-0.003,-0.028l0,-0.025c10.019,-5.15 17.535,-12.59 22.547,-21.181c5.009,-8.591 7.516,-18.328 7.516,-28.066c-0,-9.734 -2.507,-19.471 -7.516,-28.062c-5.012,-8.591 -12.528,-16.034 -22.547,-21.181l0,-0.028l0.003,-0.025l0,-0.05c0.553,-11.254 -2.134,-21.482 -7.068,-30.116c-4.935,-8.634 -12.113,-15.672 -20.544,-20.541c-6.369,-3.678 -13.453,-6.115 -20.825,-7.065c-7.369,-0.953 -15.028,-0.422 -22.544,1.843c-19.459,21.641 -38.25,45.094 -55.772,70.422c-17.522,25.328 -33.775,52.532 -48.153,81.682c0.669,0.415 1.344,0.821 2.034,1.218c0.691,0.397 1.394,0.782 2.113,1.15Z" style="fill:none;fill-rule:nonzero;stroke:#070707;stroke-width:9.38px;"/><path d="M321.079,1180.95c8.825,0 16.813,-3.578 22.597,-9.359c5.784,-5.785 9.359,-13.772 9.359,-22.597c0,-8.825 -3.575,-16.816 -9.359,-22.6c-5.784,-5.781 -13.772,-9.359 -22.597,-9.359c-8.825,-0 -16.816,3.578 -22.597,9.359c-5.784,5.784 -9.362,13.775 -9.362,22.6c-0,8.825 3.578,16.812 9.362,22.597c5.781,5.781 13.772,9.359 22.597,9.359" style="fill:#ece7e1;fill-rule:nonzero;"/><path d="M321.079,1180.95c8.825,0 16.813,-3.578 22.597,-9.359c5.784,-5.785 9.359,-13.772 9.359,-22.597c0,-8.825 -3.575,-16.816 -9.359,-22.6c-5.784,-5.781 -13.772,-9.359 -22.597,-9.359c-8.825,-0 -16.816,3.578 -22.597,9.359c-5.784,5.784 -9.362,13.775 -9.362,22.6c-0,8.825 3.578,16.812 9.362,22.597c5.781,5.781 13.772,9.359 22.597,9.359Z" style="fill:none;fill-rule:nonzero;stroke:#000;stroke-width:9.38px;"/><path d="M2144.99,1939.2l-87.582,365.1l394.794,145.282c14.538,6.034 37.216,14.109 64.909,18.293c27.697,4.188 60.413,4.482 95.029,-5.04c38.087,-10.478 72.706,-31.256 101.859,-59.816c29.156,-28.562 52.844,-64.909 69.069,-106.528c8.35,-21.416 14.243,-43.625 17.862,-66.222c3.619,-22.597 4.956,-45.584 4.194,-68.559c-2.759,-83.035 -9.059,-158.703 -16.975,-225.938c-7.916,-67.234 -17.447,-126.031 -26.663,-175.315c-29.412,-157.313 -63.043,-257.463 -92.853,-321.938c-29.809,-64.475 -55.793,-93.275 -69.909,-107.89c-106.578,-110.347 -248.722,-158.75 -369.666,-179.05c-120.943,-20.3 -220.69,-12.494 -242.481,-10.422c-36.2,3.437 -87.066,10.612 -146.309,26.912c-59.247,16.297 -126.872,41.719 -196.588,81.65c-37.259,21.341 -69.778,43.766 -97.722,65.453c-27.943,21.688 -51.315,42.635 -70.284,61.016c31.728,9.816 59.497,20.862 83.3,31.828c23.806,10.966 43.647,21.847 59.525,31.334c20.666,12.35 36.7,23.613 48.712,32.825c12.013,9.213 20.004,16.369 24.579,20.504c6.565,5.931 14.559,13.59 23.234,23.015c8.672,9.428 18.025,20.622 27.303,33.628c18.359,25.728 30.822,50.685 39.228,71.063c8.41,20.378 12.763,36.184 14.91,43.615c29.809,103.238 75.596,200.45 125.362,296.163c49.766,95.716 103.513,189.928 149.247,287.166c12.322,-51.357 24.641,-102.71 36.959,-154.066c12.319,-51.353 24.638,-102.709 36.957,-154.063Z" style="fill:#e2dcfe;fill-rule:nonzero;stroke:#000;stroke-width:9.38px;"/><path d="M1102.12,1722.9c0,-0 13.953,-8.707 45.797,-3.469c31.841,5.24 81.575,24.428 153.137,80.212" style="fill:none;fill-rule:nonzero;stroke:#000;stroke-width:9.38px;"/><path d="M1334.26,1765.48c-0,0 -26.847,-19.09 -62.753,-39.334c-35.906,-20.244 -80.872,-41.644 -117.106,-46.263" style="fill:none;fill-rule:nonzero;stroke:#000;stroke-width:9.38px;"/><path d="M1357.3,1735.73c-9.109,-6.406 -18.878,-12.94 -29.312,-19.493c-10.435,-6.55 -21.535,-13.122 -33.304,-19.6c-11.006,-6.057 -21.756,-11.572 -32.181,-16.6c-10.428,-5.028 -20.525,-9.566 -30.225,-13.666" style="fill:none;fill-rule:nonzero;stroke:#000;stroke-width:9.38px;"/><path d="M1126.11,1366.62c-21.143,3.041 -30.943,21.169 -33.418,42.5c-2.475,21.328 2.372,45.86 10.522,61.71c8.846,17.206 23.134,27.481 36.443,33.615c13.313,6.135 25.65,8.125 30.603,8.763c18.929,2.425 38.054,-1.1 55.51,-9.544c17.456,-8.447 33.247,-21.812 45.509,-39.062c1.053,2.068 7.585,14.428 20.4,27.143c12.816,12.719 31.913,25.794 58.094,29.288c2.481,0.331 17.225,2.072 35.237,-1.416c18.016,-3.484 39.3,-12.194 54.863,-32.756c11.781,-15.569 17.784,-34.628 17.897,-54.225c0.109,-19.597 -5.672,-39.731 -17.456,-57.45c-0,-0 -40.541,-7.609 -100.088,-12.484c-59.547,-4.875 -138.097,-7.019 -214.116,3.918" style="fill:#ece7e1;fill-rule:nonzero;"/><path d="M1126.11,1366.62c-21.143,3.041 -30.943,21.169 -33.418,42.5c-2.475,21.328 2.372,45.86 10.522,61.71c8.846,17.206 23.134,27.481 36.443,33.615c13.313,6.135 25.65,8.125 30.603,8.763c18.929,2.425 38.054,-1.1 55.51,-9.544c17.456,-8.447 33.247,-21.812 45.509,-39.062c1.053,2.068 7.585,14.428 20.4,27.143c12.816,12.719 31.913,25.794 58.094,29.288c2.481,0.331 17.225,2.072 35.237,-1.416c18.016,-3.484 39.3,-12.194 54.863,-32.756c11.781,-15.569 17.784,-34.628 17.897,-54.225c0.109,-19.597 -5.672,-39.731 -17.456,-57.45c-0,-0 -40.541,-7.609 -100.088,-12.484c-59.547,-4.875 -138.097,-7.019 -214.116,3.918Z" style="fill:none;fill-rule:nonzero;stroke:#000;stroke-width:9.38px;"/><path d="M851.36,1824.07c-7.298,-21.695 -22.836,-39.649 -43.259,-49.987c-0,0 -0.001,-0 -0.001,-0c-10.622,-5.379 -21.247,-10.757 -31.869,-16.135l-78.772,96.231l-78.769,96.232l18.319,11.94l18.319,11.944l98.634,-4.287l98.638,-4.291l7.047,-48.038c-0,0 1.112,-7.585 2.453,-16.728c3.02,-20.584 1.135,-41.589 -5.5,-61.307c-1.881,-5.59 -3.269,-9.715 -3.269,-9.715c-0,0 -0.784,-2.329 -1.971,-5.859Z" style="fill:#fcc1b8;fill-rule:nonzero;stroke:#000;stroke-width:9.38px;"/><path d="M711.175,1725.01c-2.175,1.603 -5.068,3.637 -8.615,5.847c-3.55,2.209 -7.753,4.596 -12.547,6.906c-28.225,13.594 -57.894,15.344 -85.166,12.187c-27.272,-3.159 -52.15,-11.225 -70.794,-17.272c-8.646,-2.803 -19.2,-6.59 -31.125,-11.737c-11.925,-5.147 -25.228,-11.653 -39.371,-19.891c-5.141,6.61 -11.235,13.841 -18.382,21.357c-7.147,7.512 -15.35,15.309 -24.703,23.043c-10.719,8.866 -21.272,16.263 -31.206,22.422c-9.934,6.163 -19.253,11.094 -27.506,15.025l128.465,83.753l128.466,83.757l78.769,-96.232l78.772,-96.231l-32.529,-16.469l-32.528,-16.465Z" style="fill:#c7bef8;fill-rule:nonzero;stroke:#070707;stroke-width:9.38px;"/><path d="M1698.89,1221.96c40.116,104.516 80.228,209.028 120.344,313.544c40.112,104.512 80.228,209.028 120.344,313.541c4.262,10.653 14.228,14.937 23.456,13.709c9.231,-1.231 17.728,-7.972 19.056,-19.372l41.141,-353.206l41.143,-353.21c-32.04,0.104 -69.028,2.013 -109.684,7.45c-40.659,5.441 -84.991,14.404 -131.722,28.616c-23.644,7.188 -45.828,15.091 -66.519,23.359c-20.69,8.269 -39.887,16.907 -57.559,25.569Z" style="fill:#e2dcfe;fill-rule:nonzero;stroke:#000;stroke-width:9.38px;"/><path d="M1438.31,1337.09l181.825,59.906l-142.793,127.513l-39.032,-187.419Z" style="fill:#040400;fill-rule:nonzero;stroke:#040400;stroke-width:9.38px;stroke-linecap:butt;"/><path d="M1599.38,1935.58l-130.425,-135.1c-15.597,-16.157 -31.947,-31.563 -49.04,-46.088c-17.094,-14.525 -34.932,-28.169 -53.503,-40.787c-22.675,-15.41 -47.913,-30.454 -71.629,-40.025c-23.718,-9.575 -45.912,-13.679 -62.496,-7.207c-3.36,-1.259 -9.157,-3.175 -16.666,-4.234c-7.506,-1.059 -16.725,-1.266 -26.922,0.891c-8.6,1.818 -15.809,4.875 -21.55,8.056c-5.737,3.181 -10.012,6.487 -12.741,8.803c-2.421,0.047 -7.1,0.291 -12.825,1.775c-5.721,1.487 -12.493,4.212 -19.103,9.216c-7.69,5.821 -12.543,12.743 -15.59,18.75c-3.047,6.009 -4.291,11.103 -4.76,13.268c-5.34,3.035 -11.184,6.666 -17.315,11.007c-6.132,4.337 -12.547,9.381 -19.032,15.234c-4.806,4.337 -9.143,8.669 -13.05,12.881c-3.903,4.216 -7.375,8.316 -10.443,12.197c-4.8,4.722 -7.894,10.206 -9.194,15.531c-1.297,5.322 -0.803,10.488 1.569,14.572c1.931,3.319 4.831,5.46 7.481,6.825c2.65,1.363 5.05,1.944 5.975,2.147c3.647,0.797 7.262,1.163 11.616,0.144c4.353,-1.019 9.446,-3.422 16.046,-8.16c13.144,-9.428 22.579,-15.871 30.985,-20.075c8.406,-4.203 15.781,-6.168 24.806,-6.646c0.609,-0.032 1.213,-0.057 1.809,-0.079c0.6,-0.018 1.194,-0.034 1.785,-0.043c8.997,-0.147 18.247,2.293 27.169,5.937c8.921,3.644 17.518,8.491 25.206,13.166c18,10.947 52.609,33.078 81.034,57.753c28.422,24.672 50.656,51.884 43.897,72.987c-0.691,2.154 -1.703,4.316 -3.128,6.46c-1.425,2.144 -3.259,4.265 -5.588,6.34c0,0 -5.303,7.072 -18.209,7.032c-12.903,-0.038 -33.406,-7.188 -63.806,-35.628c-2.228,-2.085 -4.41,-4.21 -6.556,-6.369c-2.15,-2.16 -4.269,-4.35 -6.369,-6.563c-3.95,-4.159 -12.766,-12.687 -23.088,-17.878c-10.322,-5.19 -22.156,-7.047 -32.143,2.138c-0,-0 -10.497,4.684 -10.816,18.206c-0.316,13.522 9.547,35.884 50.272,71.244c9.134,7.931 18.25,15.878 27.312,23.884c9.063,8.009 18.072,16.078 26.991,24.25l160.85,147.425l95.594,-116.619l95.59,-116.618Z" style="fill:#d87d61;fill-rule:nonzero;stroke:#000;stroke-width:9.38px;"/><path d="M1973.22,1858.78c-0.734,0.572 -2.184,1.622 -4.247,2.563c-2.059,0.94 -4.734,1.771 -7.918,1.906c-3.016,0.128 -5.622,-0.406 -7.672,-1.097c-2.053,-0.691 -3.55,-1.538 -4.357,-2.031c-12.796,-87.588 -25.59,-175.175 -38.384,-262.76c-12.797,-87.587 -25.591,-175.175 -38.387,-262.762l10.793,-1.675l10.791,-1.678c13.231,87.922 26.462,175.843 39.691,263.765c13.231,87.925 26.459,175.847 39.69,263.769Z" style="fill:#fff;fill-rule:nonzero;stroke:#070707;stroke-width:9.38px;"/><path d="M2016.54,1546.25c-1.497,11.018 -2.991,22.034 -4.485,33.053c-1.496,11.019 -2.99,22.037 -4.487,33.053c-8.55,-51.028 -17.097,-102.059 -25.647,-153.088c-8.55,-51.031 -17.1,-102.059 -25.647,-153.09l10.203,-6.735l10.203,-6.731c6.644,42.256 13.288,84.513 19.929,126.769c6.643,42.256 13.287,84.512 19.931,126.769Z" style="fill:#fff;fill-rule:nonzero;stroke:#070707;stroke-width:9.38px;"/><path d="M1867.08,1667.93c-6.738,-18.828 -13.475,-37.657 -20.213,-56.485c-6.737,-18.831 -13.475,-37.659 -20.212,-56.487c-7.797,-40.391 -15.594,-80.778 -23.394,-121.169c-7.797,-40.391 -15.594,-80.781 -23.394,-121.169c1.897,0.978 3.872,1.957 5.931,2.925c2.057,0.969 4.197,1.928 6.416,2.872c1.763,0.747 3.497,1.45 5.2,2.113c1.703,0.662 3.375,1.281 5.013,1.862c10.775,57.591 21.55,115.178 32.325,172.769c10.778,57.591 21.553,115.178 32.328,172.769Z" style="fill:#fff;fill-rule:nonzero;stroke:#070707;stroke-width:9.38px;"/><path d="M839.972,2052.76c4.453,-30.522 8.906,-61.044 13.359,-91.565c3.193,-21.874 6.385,-43.746 9.577,-65.619c2.489,-17.058 0.921,-34.463 -4.577,-50.802c-1.667,-4.951 -3.333,-9.903 -5,-14.854c-0.58,-1.725 -1.161,-3.45 -1.741,-5.175c-7.38,-21.94 -23.896,-39.612 -45.288,-48.458c-54.14,-22.388 -154.537,-63.905 -154.537,-63.905l-188.206,-77.828l197.478,-47.259l197.481,-47.263c24.688,-5.906 49.297,-12.134 73.872,-18.497c24.578,-6.362 49.119,-12.856 73.675,-19.3c18.65,-4.897 47.328,-8.84 79.253,-0.419c31.922,8.425 67.085,29.222 98.704,73.81l75.118,94.928l75.122,94.925l-247.147,143.641l-247.143,143.64Z" style="fill:#ece7e1;fill-rule:nonzero;stroke:#000;stroke-width:9.38px;"/><path d="M728.752,1743.08c-0,0 11.622,-1.79 24.572,-11.806c12.95,-10.016 27.225,-28.256 32.531,-61.153" style="fill:none;fill-rule:nonzero;stroke:#000;stroke-width:9.38px;"/><path d="M1184.02,1575.63c-31.622,-44.593 -66.788,-65.387 -98.713,-73.812c-31.925,-8.422 -60.609,-4.472 -79.256,0.422c-24.553,6.447 -49.091,12.94 -73.666,19.303c-24.575,6.359 -49.181,12.584 -73.869,18.494l-36.481,8.731c4.394,41.281 18.013,79.634 39.085,111.697c21.071,32.065 49.593,57.84 83.79,73.962c27.625,13.025 54.716,17.757 77.803,18.647c23.088,0.891 42.172,-2.059 53.782,-4.397c7.212,15.703 14.428,31.407 21.64,47.11c7.213,15.703 14.425,31.406 21.641,47.109c2.144,5.35 4.775,11.253 7.972,17.369c3.197,6.115 6.962,12.44 11.378,18.631c17.378,25.909 43.553,42.478 71.728,48.547c28.175,6.066 58.35,1.631 83.725,-14.459c8.016,-5.082 15.194,-11.1 21.469,-17.847c6.278,-6.747 11.65,-14.222 16.056,-22.213c10.978,-19.912 15.125,-42.209 13.003,-63.987c-2.122,-21.775 -10.516,-43.032 -24.625,-60.863l-136.462,-172.444Z" style="fill:#040400;fill-rule:nonzero;stroke:#040400;stroke-width:9.38px;stroke-linecap:butt;"/><path d="M785.856,1670.12c16.75,-1.125 31.566,1.469 42.853,6.61c11.284,5.14 19.044,12.831 21.684,21.903c0.169,0.581 0.954,3.415 1.041,7.14c0.088,3.728 -0.525,8.344 -3.15,12.494c-4.928,7.791 -15.791,12.091 -30.369,12.463c-14.578,0.375 -32.872,-3.179 -52.672,-11.094c1.879,-2.413 3.866,-5.188 5.844,-8.328c1.981,-3.144 3.95,-6.653 5.794,-10.541c2.812,-5.931 4.803,-11.619 6.216,-16.809c1.412,-5.191 2.25,-9.888 2.759,-13.838Z" style="fill:#fc762b;fill-rule:nonzero;stroke:#070707;stroke-width:9.38px;"/><path d="M917.5,1616.88c-0,4.247 -1.722,8.094 -4.506,10.875c-2.782,2.784 -6.628,4.506 -10.875,4.506c-4.247,0 -8.091,-1.722 -10.875,-4.506c-2.785,-2.781 -4.503,-6.628 -4.503,-10.875c-0,-4.247 1.718,-8.094 4.503,-10.875c2.784,-2.784 6.628,-4.506 10.875,-4.506c4.247,-0 8.093,1.722 10.875,4.506c2.784,2.781 4.506,6.628 4.506,10.875" style="fill:#ece7e1;fill-rule:nonzero;"/><path d="M917.5,1616.88c-0,4.247 -1.722,8.094 -4.506,10.875c-2.782,2.784 -6.628,4.506 -10.875,4.506c-4.247,0 -8.091,-1.722 -10.875,-4.506c-2.785,-2.781 -4.503,-6.628 -4.503,-10.875c-0,-4.247 1.718,-8.094 4.503,-10.875c2.784,-2.784 6.628,-4.506 10.875,-4.506c4.247,-0 8.093,1.722 10.875,4.506c2.784,2.781 4.506,6.628 4.506,10.875Z" style="fill:none;fill-rule:nonzero;stroke:#000;stroke-width:9.38px;"/><path d="M849.732,1819.22c15.947,1.522 33.3,2.606 51.894,2.947c18.593,0.338 38.425,-0.069 59.331,-1.528c26.994,-1.884 52.103,-5.272 75.1,-9.503c23,-4.231 43.887,-9.31 62.437,-14.575c3.547,7.722 7.094,15.444 10.641,23.165c3.547,7.722 7.094,15.444 10.641,23.169c-21.985,8.388 -48.657,16.866 -79.288,23.122c-30.628,6.259 -65.219,10.294 -103.041,9.8c-12.887,-0.169 -25.256,-0.85 -37.065,-1.922c-11.806,-1.075 -26.242,-2.861 -36.883,-4.589c-2.825,-8.403 -10.939,-41.683 -13.767,-50.086Z" style="fill:#dbcaf4;fill-rule:nonzero;stroke:#000;stroke-width:9.38px;"/><path d="M1439.07,1353.99c1.959,-3.706 3.893,-7.606 5.778,-11.696c1.881,-4.094 3.709,-8.379 5.456,-12.86c5.375,-13.794 9.047,-27.078 11.525,-39.447c2.475,-12.368 3.753,-23.822 4.341,-33.953c3.74,0.26 9.112,0.935 14.715,2.86c5.606,1.925 11.441,5.096 16.11,10.343c9.578,10.766 11.893,27.622 8.3,43.638c-3.594,16.015 -13.094,31.187 -27.15,38.578c-7.847,4.125 -15.975,5.228 -22.963,5.069c-6.991,-0.163 -12.834,-1.591 -16.112,-2.532Z" style="fill:#d87d61;fill-rule:nonzero;stroke:#000;stroke-width:9.38px;"/><path d="M1120.07,1265.73l-95.688,2.532l-95.684,2.531l50.034,81.603l50.038,81.6l45.65,-84.131l45.65,-84.135Z" style="fill:#040400;fill-rule:nonzero;stroke:#040400;stroke-width:9.38px;stroke-linecap:butt;"/><path d="M1018.92,1949.15l73.363,-59.5l73.365,-59.5c17.741,-13.769 36.119,-26.691 55.107,-38.631c18.99,-11.941 38.59,-22.9 58.772,-32.744c24.637,-12.019 51.762,-23.313 76.6,-29.406c24.84,-6.097 47.393,-6.997 62.887,1.775c3.503,-0.769 9.516,-1.838 17.097,-1.816c7.581,0.022 16.734,1.131 26.522,4.719c8.253,3.025 14.95,7.078 20.178,11.047c5.228,3.965 8.987,7.847 11.359,10.528c2.391,0.39 6.985,1.3 12.438,3.584c5.456,2.288 11.769,5.95 17.6,11.844c6.781,6.856 10.597,14.4 12.756,20.781c2.159,6.381 2.663,11.6 2.822,13.813l24.494,26.925l24.497,26.925c6.137,5.572 9.45,12.593 10.343,19.256c0.894,6.662 -0.628,12.962 -4.165,17.097c-4,4.678 -11.11,7.2 -18.769,6.678c-7.656,-0.522 -15.866,-4.088 -22.066,-11.591c-3.278,-3.475 -9.418,-9.509 -18.35,-15.39c-8.931,-5.885 -20.659,-11.616 -35.109,-14.485c-0.597,-0.118 -1.191,-0.231 -1.778,-0.337c-0.591,-0.106 -1.178,-0.206 -1.76,-0.3c-8.884,-1.425 -17.878,-1.46 -26.715,-0.256c-8.841,1.203 -17.528,3.646 -25.803,7.178c-19.375,8.268 -56.788,25.243 -88.438,45.612c-31.647,20.372 -57.534,44.138 -53.85,65.988c0.375,2.231 1.072,4.515 2.175,6.837c1.103,2.325 2.616,4.688 4.625,7.075c0,0 4.244,7.753 17.022,9.553c12.778,1.8 34.091,-2.353 68.231,-26.168c2.503,-1.747 4.966,-3.541 7.4,-5.372c2.435,-1.828 4.844,-3.697 7.238,-5.588c4.503,-3.553 14.444,-10.737 25.4,-14.403c10.956,-3.669 22.934,-3.816 31.512,6.697c0,-0 9.722,6.131 8.11,19.562c-1.616,13.429 -14.566,34.157 -59.913,63.35c-10.172,6.547 -20.328,13.113 -30.44,19.747c-10.11,6.635 -20.179,13.338 -30.169,20.157l-90.11,61.496l-90.112,61.5c-25.728,-42.375 -51.456,-84.746 -77.184,-127.118c-25.725,-42.372 -51.454,-84.747 -77.182,-127.119Z" style="fill:#d87d61;fill-rule:nonzero;stroke:#000;stroke-width:9.38px;"/><path d="M1463.29,1281.89c-9.291,55.991 -37.094,103.466 -74.531,134.956c-37.441,31.491 -84.516,47 -132.356,39.063c-47.838,-7.938 -87.382,-37.822 -112.644,-79.716c-25.263,-41.897 -36.241,-95.806 -26.95,-151.797c9.29,-55.994 37.094,-103.465 74.534,-134.956c37.438,-31.491 84.513,-47 132.353,-39.063c47.838,7.938 87.385,37.822 112.644,79.716c25.263,41.897 36.241,95.806 26.95,151.797" style="fill:#d87d61;fill-rule:nonzero;"/><path d="M1463.29,1281.89c-9.291,55.991 -37.094,103.466 -74.531,134.956c-37.441,31.491 -84.516,47 -132.356,39.063c-47.838,-7.938 -87.382,-37.822 -112.644,-79.716c-25.263,-41.897 -36.241,-95.806 -26.95,-151.797c9.29,-55.994 37.094,-103.465 74.534,-134.956c37.438,-31.491 84.513,-47 132.353,-39.063c47.838,7.938 87.385,37.822 112.644,79.716c25.263,41.897 36.241,95.806 26.95,151.797Z" style="fill:none;fill-rule:nonzero;stroke:#000;stroke-width:9.38px;"/><path d="M1338.24,1241.32c-0.481,2.903 -2.097,5.338 -4.316,6.925c-2.218,1.588 -5.043,2.328 -7.946,1.847c-2.904,-0.481 -5.338,-2.097 -6.925,-4.315c-1.588,-2.219 -2.329,-5.044 -1.847,-7.947c0.481,-2.903 2.097,-5.338 4.315,-6.925c2.219,-1.588 5.044,-2.328 7.947,-1.847c2.903,0.481 5.338,2.097 6.925,4.315c1.588,2.219 2.328,5.044 1.847,7.947" style="fill:#040400;fill-rule:nonzero;"/><path d="M1210.96,1223.64c-0.482,2.903 -2.097,5.338 -4.316,6.925c-2.219,1.588 -5.044,2.328 -7.947,1.847c-2.903,-0.481 -5.337,-2.097 -6.925,-4.316c-1.587,-2.218 -2.328,-5.043 -1.847,-7.946c0.482,-2.904 2.097,-5.338 4.316,-6.925c2.219,-1.588 5.044,-2.329 7.947,-1.847c2.903,0.481 5.337,2.097 6.925,4.315c1.587,2.219 2.328,5.044 1.847,7.947" style="fill:#040400;fill-rule:nonzero;"/><path d="M1240.38,1272.62l-16.675,-21.369c-0.234,-0.303 -0.262,-0.675 -0.14,-0.987c0.125,-0.31 0.403,-0.56 0.781,-0.616l12.566,-0.953l12.568,-0.95l5.16,-31.103l5.162,-31.103" style="fill:none;fill-rule:nonzero;stroke:#000;stroke-width:9.38px;"/><path d="M1285.71,1305.45c-3.094,5.509 -7.803,10.019 -13.475,13.159c-5.672,3.138 -12.303,4.91 -19.241,4.944c-7.543,0.038 -14.818,-1.975 -20.978,-5.562c-6.162,-3.585 -11.209,-8.738 -14.297,-14.978" style="fill:none;fill-rule:nonzero;stroke:#000;stroke-width:9.38px;"/><path d="M1314.08,1177.5l30.003,13.096l30.003,13.1" style="fill:none;fill-rule:nonzero;stroke:#000;stroke-width:9.38px;"/><path d="M1539.79,1805.64c0,0 -12.568,-10.606 -44.834,-9.959c-32.266,0.647 -84.225,12.55 -163.006,57.569" style="fill:none;fill-rule:nonzero;stroke:#000;stroke-width:9.38px;"/><path d="M1232.71,1171.78c-10.757,2.6 -21.51,5.197 -32.266,7.797l-32.266,7.796" style="fill:none;fill-rule:nonzero;stroke:#000;stroke-width:9.38px;"/><path d="M1303.95,1814.7c0,0 29.294,-15.068 67.719,-29.99c38.425,-14.919 85.981,-29.691 122.503,-29.097" style="fill:none;fill-rule:nonzero;stroke:#000;stroke-width:9.38px;"/><path d="M1380.77,1298.44c-1.271,7.656 -5.525,14.075 -11.375,18.26c-5.85,4.184 -13.296,6.137 -20.953,4.865c-7.656,-1.269 -14.075,-5.522 -18.259,-11.372c-4.184,-5.853 -6.138,-13.3 -4.866,-20.956c1.269,-7.656 5.522,-14.072 11.372,-18.256c5.85,-4.188 13.297,-6.141 20.956,-4.869c7.657,1.272 14.072,5.525 18.257,11.375c4.187,5.85 6.14,13.297 4.868,20.953" style="fill:#ff6406;fill-rule:nonzero;"/><path d="M1380.77,1298.44c-1.271,7.656 -5.525,14.075 -11.375,18.26c-5.85,4.184 -13.296,6.137 -20.953,4.865c-7.656,-1.269 -14.075,-5.522 -18.259,-11.372c-4.184,-5.853 -6.138,-13.3 -4.866,-20.956c1.269,-7.656 5.522,-14.072 11.372,-18.256c5.85,-4.188 13.297,-6.141 20.956,-4.869c7.657,1.272 14.072,5.525 18.257,11.375c4.187,5.85 6.14,13.297 4.868,20.953Z" style="fill:none;fill-rule:nonzero;stroke:#070707;stroke-width:9.38px;"/><path d="M1210,1273.15c-1.272,7.656 -5.525,14.075 -11.375,18.259c-5.85,4.185 -13.297,6.138 -20.954,4.866c-7.656,-1.269 -14.075,-5.522 -18.259,-11.372c-4.184,-5.853 -6.137,-13.297 -4.866,-20.956c1.269,-7.656 5.522,-14.072 11.372,-18.256c5.85,-4.188 13.297,-6.141 20.957,-4.869c7.656,1.272 14.071,5.525 18.256,11.375c4.187,5.85 6.14,13.297 4.869,20.953" style="fill:#ff6406;fill-rule:nonzero;"/><path d="M1210,1273.15c-1.272,7.656 -5.525,14.075 -11.375,18.259c-5.85,4.185 -13.297,6.138 -20.954,4.866c-7.656,-1.269 -14.075,-5.522 -18.259,-11.372c-4.184,-5.853 -6.137,-13.297 -4.866,-20.956c1.269,-7.656 5.522,-14.072 11.372,-18.256c5.85,-4.188 13.297,-6.141 20.957,-4.869c7.656,1.272 14.071,5.525 18.256,11.375c4.187,5.85 6.14,13.297 4.869,20.953Z" style="fill:none;fill-rule:nonzero;stroke:#070707;stroke-width:9.38px;"/><path d="M1139.15,1155.91c0,-0 31.304,7.09 72.46,2.393c41.156,-4.697 92.162,-21.181 131.565,-68.325c0,0 9.635,34.463 29.822,72.45c20.191,37.988 50.938,79.5 93.172,93.603c0,0 6.744,0.241 14.672,3.091c7.928,2.85 17.038,8.306 21.769,18.738c-0,-0 23.79,-51.785 18.106,-112.597c-5.681,-60.813 -40.834,-130.653 -158.722,-166.766c0,0 -52.465,-16.203 -112.54,-0.453c-60.072,15.75 -127.754,63.45 -158.188,191.25c0,-0 4.097,-2.059 10.338,-3.209c6.237,-1.15 14.618,-1.394 23.184,2.237l14.362,-32.412Z" style="fill:#040400;fill-rule:nonzero;stroke:#040400;stroke-width:9.38px;stroke-linecap:butt;"/><path d="M1285.39,1781.97c9.928,-5.043 20.528,-10.118 31.791,-15.115c11.262,-5 23.184,-9.919 35.759,-14.653c11.753,-4.429 23.181,-8.357 34.219,-11.844c11.034,-3.491 21.678,-6.544 31.862,-9.219" style="fill:none;fill-rule:nonzero;stroke:#000;stroke-width:9.38px;"/><path d="M1599.38,1935.58l121.906,102.44l121.906,102.438" style="fill:none;fill-rule:nonzero;stroke:#000;stroke-width:9.38px;"/><path d="M2067.22,1080.37c3.222,66.878 -16.35,128.575 -50.591,174.259c-34.24,45.688 -83.156,75.36 -138.631,78.194c-55.472,2.835 -106.997,-21.706 -145.459,-63.678c-38.466,-41.969 -63.866,-101.369 -67.085,-168.247c-3.222,-66.878 16.347,-128.575 50.591,-174.259c34.241,-45.688 83.156,-75.36 138.628,-78.194c55.475,-2.834 107,21.706 145.463,63.678c38.462,41.969 63.862,101.369 67.084,168.247" style="fill:#d87d61;fill-rule:nonzero;"/><path d="M2067.22,1080.37c3.222,66.878 -16.35,128.575 -50.591,174.259c-34.24,45.688 -83.156,75.36 -138.631,78.194c-55.472,2.835 -106.997,-21.706 -145.459,-63.678c-38.466,-41.969 -63.866,-101.369 -67.085,-168.247c-3.222,-66.878 16.347,-128.575 50.591,-174.259c34.241,-45.688 83.156,-75.36 138.628,-78.194c55.475,-2.834 107,21.706 145.463,63.678c38.462,41.969 63.862,101.369 67.084,168.247Z" style="fill:none;fill-rule:nonzero;stroke:#000;stroke-width:9.38px;"/><path d="M1882.54,1068.78c0.172,3.468 -1.078,6.678 -3.238,9.065c-2.162,2.385 -5.231,3.947 -8.7,4.119c-3.468,0.172 -6.681,-1.078 -9.065,-3.237c-2.388,-2.16 -3.95,-5.232 -4.122,-8.7c-0.172,-3.469 1.078,-6.682 3.24,-9.066c2.16,-2.388 5.232,-3.947 8.7,-4.119c3.469,-0.172 6.679,1.078 9.066,3.238c2.384,2.159 3.947,5.231 4.119,8.7" style="fill:#040400;fill-rule:nonzero;"/><path d="M1749.24,1097.29c0.172,3.469 -1.078,6.678 -3.237,9.066c-2.163,2.384 -5.231,3.946 -8.7,4.118c-3.469,0.172 -6.681,-1.078 -9.066,-3.237c-2.387,-2.163 -3.95,-5.231 -4.122,-8.7c-0.172,-3.469 1.078,-6.681 3.241,-9.066c2.159,-2.387 5.231,-3.947 8.7,-4.119c3.469,-0.171 6.678,1.079 9.066,3.238c2.384,2.159 3.946,5.231 4.118,8.7" style="fill:#040400;fill-rule:nonzero;"/><path d="M1801.78,1141.18l-14.025,-7.678l-14.022,-7.678c-0.397,-0.219 -0.603,-0.609 -0.615,-1.003c-0.01,-0.397 0.175,-0.797 0.559,-1.034l13.169,-6.903l13.165,-6.904l-8.94,-36.103l-8.944,-36.106" style="fill:none;fill-rule:nonzero;stroke:#000;stroke-width:9.38px;"/><path d="M1864.19,1163.48c-1.407,7.322 -4.994,14.125 -10.169,19.756c-5.175,5.632 -11.938,10.088 -19.688,12.716c-8.428,2.859 -17.322,3.319 -25.556,1.606c-8.231,-1.712 -15.806,-5.597 -21.591,-11.428" style="fill:none;fill-rule:nonzero;stroke:#000;stroke-width:9.38px;"/><path d="M1840.58,1001.92l38.11,-6.281l38.106,-6.284" style="fill:none;fill-rule:nonzero;stroke:#000;stroke-width:9.38px;"/><path d="M1757.34,1016.51c-12.375,4.16 -24.747,8.316 -37.122,12.475c-12.375,4.16 -24.746,8.319 -37.121,12.478" style="fill:none;fill-rule:nonzero;stroke:#000;stroke-width:9.38px;"/><path d="M2064.37,1136.97c0.969,-6.309 1.788,-13.072 2.363,-20.25c0.575,-7.178 0.906,-14.769 0.897,-22.737c-0.019,-14.947 -1.235,-28.788 -3.113,-41.325c-1.881,-12.538 -4.428,-23.772 -7.112,-33.507c4.253,-1.056 11.584,-2.531 19.875,-2.328c8.287,0.206 17.534,2.094 25.612,7.772c14.172,9.959 20.925,28.891 20.619,48.306c-0.31,19.413 -7.678,39.31 -21.753,51.2c-6.432,5.432 -13.56,8.6 -20.191,10.435c-6.631,1.837 -12.762,2.337 -17.197,2.434Z" style="fill:#d87d61;fill-rule:nonzero;stroke:#000;stroke-width:9.38px;"/><path d="M1949.91,1124.63c0.454,9.146 -2.843,17.609 -8.537,23.9c-5.697,6.29 -13.794,10.406 -22.938,10.862c-9.146,0.453 -17.609,-2.844 -23.9,-8.541c-6.29,-5.696 -10.409,-13.79 -10.862,-22.937c-0.453,-9.144 2.844,-17.606 8.541,-23.897c5.693,-6.291 13.79,-10.409 22.934,-10.862c9.147,-0.454 17.609,2.84 23.9,8.537c6.291,5.697 10.409,13.791 10.862,22.938" style="fill:#ff6406;fill-rule:nonzero;"/><path d="M1949.91,1124.63c0.454,9.146 -2.843,17.609 -8.537,23.9c-5.697,6.29 -13.794,10.406 -22.938,10.862c-9.146,0.453 -17.609,-2.844 -23.9,-8.541c-6.29,-5.696 -10.409,-13.79 -10.862,-22.937c-0.453,-9.144 2.844,-17.606 8.541,-23.897c5.693,-6.291 13.79,-10.409 22.934,-10.862c9.147,-0.454 17.609,2.84 23.9,8.537c6.291,5.697 10.409,13.791 10.862,22.938Z" style="fill:none;fill-rule:nonzero;stroke:#070707;stroke-width:9.38px;"/><path d="M1763.47,1168.91c0.453,9.147 -2.844,17.61 -8.538,23.9c-5.697,6.291 -13.793,10.407 -22.937,10.863c-9.147,0.453 -17.61,-2.844 -23.9,-8.541c-6.291,-5.693 -10.41,-13.79 -10.863,-22.937c-0.453,-9.144 2.844,-17.606 8.541,-23.897c5.694,-6.291 13.791,-10.409 22.934,-10.863c9.147,-0.453 17.61,2.841 23.9,8.538c6.291,5.697 10.41,13.791 10.863,22.937" style="fill:#ff6406;fill-rule:nonzero;"/><path d="M1763.47,1168.91c0.453,9.147 -2.844,17.61 -8.538,23.9c-5.697,6.291 -13.793,10.407 -22.937,10.863c-9.147,0.453 -17.61,-2.844 -23.9,-8.541c-6.291,-5.693 -10.41,-13.79 -10.863,-22.937c-0.453,-9.144 2.844,-17.606 8.541,-23.897c5.694,-6.291 13.791,-10.409 22.934,-10.863c9.147,-0.453 17.61,2.841 23.9,8.538c6.291,5.697 10.41,13.791 10.863,22.937Z" style="fill:none;fill-rule:nonzero;stroke:#070707;stroke-width:9.38px;"/><path d="M1687.3,1200.67c-2.184,-5.566 -4.321,-11.431 -6.368,-17.591c-2.047,-6.156 -4,-12.606 -5.819,-19.343c-4.169,-15.46 -7.019,-30.225 -8.913,-44.028c-1.896,-13.8 -2.834,-26.638 -3.181,-38.244c-4.275,-0.41 -10.475,-0.641 -17.165,0.537c-6.688,1.175 -13.872,3.76 -20.116,8.985c-12.809,10.712 -15.609,29.903 -11.572,49.231c4.038,19.331 14.906,38.803 29.434,50.078c8.107,6.291 17.091,9.122 25.022,10.263c7.928,1.137 14.8,0.587 18.678,0.112Z" style="fill:#d87d61;fill-rule:nonzero;stroke:#000;stroke-width:9.38px;"/><path d="M1765.94,919.079c-0,22.875 -9.272,43.584 -24.263,58.578c-14.99,14.991 -35.703,24.263 -58.578,24.263c-22.875,-0 -43.584,-9.272 -58.578,-24.263c-14.991,-14.994 -24.262,-35.703 -24.262,-58.578c-0,-22.875 9.271,-43.587 24.262,-58.578c14.994,-14.991 35.703,-24.263 58.578,-24.263c22.875,0 43.588,9.272 58.578,24.263c14.991,14.991 24.263,35.703 24.263,58.578" style="fill:#040400;fill-rule:nonzero;"/><path d="M1765.94,919.079c-0,22.875 -9.272,43.584 -24.263,58.578c-14.99,14.991 -35.703,24.263 -58.578,24.263c-22.875,-0 -43.584,-9.272 -58.578,-24.263c-14.991,-14.994 -24.262,-35.703 -24.262,-58.578c-0,-22.875 9.271,-43.587 24.262,-58.578c14.994,-14.991 35.703,-24.263 58.578,-24.263c22.875,0 43.588,9.272 58.578,24.263c14.991,14.991 24.263,35.703 24.263,58.578Z" style="fill:none;fill-rule:nonzero;stroke:#040400;stroke-width:9.38px;stroke-linecap:butt;"/><path d="M1915.82,862.939c0,32.265 -13.078,61.478 -34.225,82.625c-21.143,21.144 -50.356,34.222 -82.622,34.222c-32.268,-0 -61.481,-13.078 -82.625,-34.222c-21.146,-21.147 -34.225,-50.36 -34.225,-82.625c0,-32.266 13.079,-61.478 34.225,-82.625c21.144,-21.144 50.357,-34.222 82.625,-34.222c32.266,-0 61.479,13.078 82.622,34.222c21.147,21.147 34.225,50.359 34.225,82.625" style="fill:#040400;fill-rule:nonzero;"/><path d="M1915.82,862.939c0,32.265 -13.078,61.478 -34.225,82.625c-21.143,21.144 -50.356,34.222 -82.622,34.222c-32.268,-0 -61.481,-13.078 -82.625,-34.222c-21.146,-21.147 -34.225,-50.36 -34.225,-82.625c0,-32.266 13.079,-61.478 34.225,-82.625c21.144,-21.144 50.357,-34.222 82.625,-34.222c32.266,-0 61.479,13.078 82.622,34.222c21.147,21.147 34.225,50.359 34.225,82.625Z" style="fill:none;fill-rule:nonzero;stroke:#040400;stroke-width:9.38px;stroke-linecap:butt;"/><path d="M2103.68,862.939c-0,32.265 -13.079,61.478 -34.225,82.625c-21.144,21.144 -50.357,34.222 -82.622,34.222c-32.269,-0 -61.482,-13.078 -82.625,-34.222c-21.147,-21.147 -34.225,-50.36 -34.225,-82.625c-0,-32.266 13.078,-61.478 34.225,-82.625c21.143,-21.144 50.356,-34.222 82.625,-34.222c32.265,-0 61.478,13.078 82.622,34.222c21.146,21.147 34.225,50.359 34.225,82.625" style="fill:#040400;fill-rule:nonzero;"/><path d="M2103.68,862.939c-0,32.265 -13.079,61.478 -34.225,82.625c-21.144,21.144 -50.357,34.222 -82.622,34.222c-32.269,-0 -61.482,-13.078 -82.625,-34.222c-21.147,-21.147 -34.225,-50.36 -34.225,-82.625c-0,-32.266 13.078,-61.478 34.225,-82.625c21.143,-21.144 50.356,-34.222 82.625,-34.222c32.265,-0 61.478,13.078 82.622,34.222c21.146,21.147 34.225,50.359 34.225,82.625Z" style="fill:none;fill-rule:nonzero;stroke:#040400;stroke-width:9.38px;stroke-linecap:butt;"/><path d="M942.107,718.665c-13.144,60.484 -4.1,119.794 21.153,166.794c25.25,46.997 66.706,81.678 118.384,92.909c51.678,11.231 103.791,-3.115 146.269,-35.394c42.481,-32.278 75.328,-82.484 88.472,-142.968c13.147,-60.485 4.1,-119.794 -21.15,-166.791c-25.253,-46.997 -66.709,-81.681 -118.388,-92.912c-51.675,-11.232 -103.787,3.118 -146.268,35.393c-42.482,32.278 -75.328,82.485 -88.472,142.969" style="fill:#fcc1b8;fill-rule:nonzero;"/><path d="M942.107,718.665c-13.144,60.484 -4.1,119.794 21.153,166.794c25.25,46.997 66.706,81.678 118.384,92.909c51.678,11.231 103.791,-3.115 146.269,-35.394c42.481,-32.278 75.328,-82.484 88.472,-142.968c13.147,-60.485 4.1,-119.794 -21.15,-166.791c-25.253,-46.997 -66.709,-81.681 -118.388,-92.912c-51.675,-11.232 -103.787,3.118 -146.268,35.393c-42.482,32.278 -75.328,82.485 -88.472,142.969Z" style="fill:none;fill-rule:nonzero;stroke:#000;stroke-width:9.38px;"/><path d="M1971.99,964.873c0,-0 2.419,29.546 15.294,56.418c12.872,26.869 36.2,51.06 78.016,40.347c-0,0 -0.782,-6.759 -2.16,-15.45c-1.381,-8.69 -3.356,-19.312 -5.74,-27.037c-0,-0 3.037,-0.722 7.734,-1.325c4.697,-0.6 11.056,-1.078 17.703,-0.594c0,-0 2.825,-11.428 4.241,-29.791c1.412,-18.359 1.412,-43.65 -4.241,-71.372l-55.425,24.4l-55.422,24.404Z" style="fill:#040400;fill-rule:nonzero;stroke:#040400;stroke-width:9.38px;stroke-linecap:butt;"/><path d="M2144.99,1935.58l-40.1,164.725l-40.1,164.728c-52.363,-13.432 -97.063,-31.088 -134.229,-49.294c-37.162,-18.206 -66.79,-36.959 -89.006,-52.581c-12.019,-8.45 -31.934,-23.063 -54.35,-44.26c-22.415,-21.197 -47.331,-48.975 -69.347,-83.759c0,-0 -11.809,-18.656 -21.484,-42.313c-9.678,-23.659 -17.222,-52.321 -8.7,-72.337c0.587,-1.375 1.7,-3.984 3.609,-6.697c1.91,-2.709 4.619,-5.522 8.403,-7.3c5.76,-2.709 12.241,-2.319 17.925,-0.762c5.685,1.559 10.572,4.278 13.15,6.225c9.941,7.506 18.416,16.896 26.085,26.971c7.669,10.072 14.531,20.825 21.256,31.06c4.063,6.184 10.353,15.703 17.894,22.697c7.54,6.993 16.331,11.465 25.4,7.565c1.744,-0.75 3.225,-1.962 4.425,-3.431c1.203,-1.469 2.128,-3.2 2.765,-4.987c6.338,-17.816 0.01,-42.032 -7.903,-61.794c-7.912,-19.766 -17.409,-35.072 -17.409,-35.072c-10.081,-15.725 -21.969,-30.597 -38.088,-48.391c-16.115,-17.793 -36.459,-38.509 -63.45,-65.915c-10.384,-10.544 -21.043,-21.203 -28.346,-31.444c-7.304,-10.241 -11.247,-20.059 -8.204,-28.928c1.404,-4.091 4.075,-7.344 7.191,-9.925c3.113,-2.581 6.669,-4.494 9.838,-5.9c-7.591,-7.013 -11.591,-15.66 -12.51,-23.794c-0.919,-8.134 1.247,-15.756 5.988,-20.722c4.506,-4.719 10.672,-6.337 15.881,-6.74c5.206,-0.404 9.456,0.406 10.128,0.543c-3.55,-7.284 -4.894,-14.884 -4.237,-21.703c0.656,-6.822 3.312,-12.865 7.762,-17.034c3.588,-3.36 7.969,-5.153 11.759,-6.11c3.791,-0.956 6.991,-1.075 8.216,-1.093c2.666,-0.041 5.025,0.259 7.763,1.003c2.74,0.744 5.859,1.931 10.046,3.659c3.744,1.544 8.11,3.425 12.985,5.685c4.875,2.262 10.262,4.9 16.053,7.959c2.116,-2.147 4.337,-4.756 6.672,-7.241c2.334,-2.484 4.781,-4.847 7.344,-6.509c11.39,-7.388 25.643,-4.259 39.256,2.309c13.612,6.569 26.581,16.578 35.406,22.96c19.3,13.956 34.963,28.343 46.784,40.493c11.822,12.147 19.804,22.057 23.744,27.063c42.713,54.275 67.138,87.328 85.6,111.375c18.46,24.044 30.96,39.081 49.819,57.325c8.653,8.369 19.406,18.147 32.409,28.656c13,10.506 28.253,21.747 45.907,33.035Z" style="fill:#d87d61;fill-rule:nonzero;stroke:#000;stroke-width:9.38px;"/><path d="M1682.21,1704.46c12.447,8.11 25.572,17.26 39.119,27.56c13.55,10.296 27.522,21.746 41.662,34.456c19.541,17.562 36.769,35.162 51.9,52.175c15.132,17.015 28.166,33.444 39.319,48.662" style="fill:none;fill-rule:nonzero;stroke:#000;stroke-width:9.38px;"/><path d="M1701.7,1653.75c14.006,8.656 29.05,18.7 44.713,30.312c15.665,11.613 31.95,24.791 48.44,39.725c20.491,18.557 38.356,37.154 53.86,55.029c15.5,17.871 28.64,35.021 39.687,50.687" style="fill:none;fill-rule:nonzero;stroke:#000;stroke-width:9.38px;"/><path d="M1772.05,1626.11c14.875,11.766 30.603,25.106 46.76,40.169c16.156,15.059 32.74,31.837 49.328,50.475c11.418,12.831 21.925,25.512 31.578,37.897c9.653,12.384 18.456,24.475 26.472,36.115" style="fill:none;fill-rule:nonzero;stroke:#000;stroke-width:9.38px;"/><path d="M2508.9,2038.02l-181.956,-51.219l-181.96,-51.222" style="fill:none;fill-rule:nonzero;stroke:#000;stroke-width:9.38px;"/><path d="M936.126,770.703c0.072,-5.9 0.347,-12.191 0.91,-18.822c0.562,-6.635 1.409,-13.607 2.625,-20.872c2.278,-13.628 5.478,-26.066 9.09,-37.213c3.613,-11.147 7.635,-21.006 11.556,-29.478c-3.718,-1.606 -10.181,-4.062 -17.771,-5.128c-7.591,-1.069 -16.307,-0.747 -24.535,3.209c-14.428,6.938 -23.453,23.182 -26.109,40.929c-2.656,17.75 1.05,37.009 12.087,49.981c5.041,5.928 11.063,9.897 16.832,12.572c5.771,2.678 11.287,4.062 15.315,4.822Z" style="fill:#fcc1b8;fill-rule:nonzero;stroke:#000;stroke-width:9.38px;"/><path d="M2273.4,1759.52l55.582,225.337" style="fill:none;fill-rule:nonzero;stroke:#000;stroke-width:9.38px;"/><path d="M970.614,644.885c-0,0 23.872,15.538 59.037,18.453c35.166,2.916 81.628,-6.793 126.813,-57.287c7.731,46.044 33.1,82.334 65.175,104.825c32.075,22.494 70.856,31.191 105.409,22.041c25.881,-6.854 48.959,-23.6 66.063,-46.675c17.103,-23.079 28.231,-52.485 30.218,-84.654c-0.487,-35.487 -12.156,-67.934 -31.153,-93.193c-19,-25.263 -45.331,-43.341 -75.15,-50.091c-31.315,-7.087 -59.584,-0.125 -80.778,9.259c-21.194,9.382 -35.306,21.182 -38.306,23.766c-3.231,-1.912 -25.685,-14.728 -58.175,-21.8c-32.491,-7.069 -75.016,-8.391 -118.397,12.678c-33.131,16.094 -59.947,41.941 -77.994,73.366c-18.047,31.425 -27.322,68.428 -25.375,106.828c1.903,-0.791 4.225,-1.616 6.91,-2.294c2.681,-0.681 5.731,-1.215 9.096,-1.422c6.138,-0.375 11.575,0.45 16.047,1.66c4.472,1.209 7.978,2.806 10.253,3.972c0.654,-1.441 1.344,-2.913 2.072,-4.407c0.728,-1.493 1.494,-3.012 2.297,-4.55c0.981,-1.878 1.972,-3.687 2.963,-5.434c0.99,-1.747 1.984,-3.425 2.975,-5.041Z" style="fill:#ece7e1;fill-rule:nonzero;stroke:#000;stroke-width:9.38px;"/><path d="M1280.76,887.582c2.894,-4.738 5.791,-9.75 8.644,-15.047c2.853,-5.297 5.666,-10.872 8.394,-16.731c6.253,-13.45 11.165,-26.472 15.034,-38.763c3.866,-12.287 6.691,-23.847 8.775,-34.378c4.078,0.294 9.935,1.047 16.041,3.166c6.106,2.115 12.459,5.59 17.534,11.328c10.413,11.766 10.138,29.7 3.422,46.7c-6.716,16.997 -19.875,33.056 -35.225,41.075c-8.566,4.475 -17.434,5.653 -25.056,5.456c-7.622,-0.194 -13.991,-1.769 -17.563,-2.806Z" style="fill:#fcc1b8;fill-rule:nonzero;stroke:#000;stroke-width:9.38px;"/><path d="M2315.17,1347.1c1.997,-7.565 3.256,-15.681 4.528,-23.39c1.275,-7.71 2.562,-15.013 4.616,-20.95c3.831,-11.069 8.312,-24.622 15.181,-35.55c6.869,-10.928 16.122,-19.231 29.5,-19.8c0.003,-0 5.662,-0.241 10.681,7.703c5.022,7.944 9.403,24.072 6.859,56.806c-1.69,21.728 -5.843,43.119 -12.237,63.831c-6.397,20.713 -15.034,40.744 -25.694,59.75l-55.6,99.163c-2.89,5.153 -5.147,10.637 -6.637,16.312c-1.491,5.672 -2.219,11.535 -2.053,17.441c0.225,8.016 2.05,16.466 7.434,22.588c5.387,6.121 14.331,9.915 28.797,8.625c-0,-0 -9.644,12.859 -15.96,28.131c-6.312,15.269 -9.3,32.95 4.019,42.597c0,-0 7.81,6.956 19.785,6.218c11.971,-0.737 28.106,-9.175 44.756,-39.962c-0,-0 8.144,15.703 22.062,21.225c13.916,5.522 33.61,0.866 56.713,-39.856c-0,-0 9.675,14.69 27.347,10.643c17.668,-4.046 43.328,-26.831 75.297,-101.775c4.459,-10.453 9.065,-20.846 13.762,-31.2c4.694,-10.35 9.478,-20.665 14.294,-30.959c15.509,-33.141 38.312,-91.634 41.681,-154.791c3.369,-63.153 -12.694,-130.971 -74.912,-182.762c-13.685,-11.391 -28.963,-20.647 -45.269,-27.2c-16.306,-6.553 -33.641,-10.403 -51.435,-10.978c-23.978,-0.778 -52.09,3.894 -80.253,21.075c-28.162,17.181 -56.372,46.869 -80.543,96.122c-0,-0 -12.969,25.909 -23.344,58.262c-10.375,32.356 -18.153,71.156 -7.775,96.941c2.519,6.259 7.165,11.25 12.79,14.162c5.622,2.913 12.225,3.747 18.654,1.694c0.334,-0.106 0.668,-0.222 1.003,-0.344c0.337,-0.122 0.675,-0.25 1.012,-0.387c5.903,-2.41 10.272,-6.475 13.6,-11.581c3.328,-5.107 5.61,-11.247 7.341,-17.804" style="fill:#fcc1b8;fill-rule:nonzero;"/><path d="M2315.17,1347.1c1.997,-7.565 3.256,-15.681 4.528,-23.39c1.275,-7.71 2.562,-15.013 4.616,-20.95c3.831,-11.069 8.312,-24.622 15.181,-35.55c6.869,-10.928 16.122,-19.231 29.5,-19.8c0.003,-0 5.662,-0.241 10.681,7.703c5.022,7.944 9.403,24.072 6.859,56.806c-1.69,21.728 -5.843,43.119 -12.237,63.831c-6.397,20.713 -15.034,40.744 -25.694,59.75l-55.6,99.163c-2.89,5.153 -5.147,10.637 -6.637,16.312c-1.491,5.672 -2.219,11.535 -2.053,17.441c0.225,8.016 2.05,16.466 7.434,22.588c5.387,6.121 14.331,9.915 28.797,8.625c-0,-0 -9.644,12.859 -15.96,28.131c-6.312,15.269 -9.3,32.95 4.019,42.597c0,-0 7.81,6.956 19.785,6.218c11.971,-0.737 28.106,-9.175 44.756,-39.962c-0,-0 8.144,15.703 22.062,21.225c13.916,5.522 33.61,0.866 56.713,-39.856c-0,-0 9.675,14.69 27.347,10.643c17.668,-4.046 43.328,-26.831 75.297,-101.775c4.459,-10.453 9.065,-20.846 13.762,-31.2c4.694,-10.35 9.478,-20.665 14.294,-30.959c15.509,-33.141 38.312,-91.634 41.681,-154.791c3.369,-63.153 -12.694,-130.971 -74.912,-182.762c-13.685,-11.391 -28.963,-20.647 -45.269,-27.2c-16.306,-6.553 -33.641,-10.403 -51.435,-10.978c-23.978,-0.778 -52.09,3.894 -80.253,21.075c-28.162,17.181 -56.372,46.869 -80.543,96.122c-0,-0 -12.969,25.909 -23.344,58.262c-10.375,32.356 -18.153,71.156 -7.775,96.941c2.519,6.259 7.165,11.25 12.79,14.162c5.622,2.913 12.225,3.747 18.654,1.694c0.334,-0.106 0.668,-0.222 1.003,-0.344c0.337,-0.122 0.675,-0.25 1.012,-0.387c5.903,-2.41 10.272,-6.475 13.6,-11.581c3.328,-5.107 5.61,-11.247 7.341,-17.804Z" style="fill:none;fill-rule:nonzero;stroke:#000;stroke-width:9.38px;"/><path d="M2425.26,1400.13c-8.794,21.047 -18.55,42.832 -29.39,65.207c-10.844,22.372 -22.769,45.331 -35.897,68.718c-6.503,11.585 -13.057,22.838 -19.635,33.766c-6.578,10.928 -13.184,21.531 -19.784,31.806" style="fill:none;fill-rule:nonzero;stroke:#000;stroke-width:9.38px;"/><path d="M2478.74,1427.55c0,0 -18.215,40.341 -40.525,86.644c-22.306,46.306 -48.706,98.572 -65.069,122.422" style="fill:none;fill-rule:nonzero;stroke:#000;stroke-width:9.38px;"/><path d="M2528.99,1453.24c-12.844,27.457 -25.688,54.916 -38.532,82.372c-12.843,27.457 -25.687,54.913 -38.531,82.372" style="fill:none;fill-rule:nonzero;stroke:#000;stroke-width:9.38px;"/><path d="M1773.5,565.883c3.066,61.819 -15.566,118.85 -48.169,161.081c-32.606,42.229 -79.181,69.657 -132,72.279c-52.819,2.618 -101.878,-20.066 -138.503,-58.863c-36.622,-38.797 -60.806,-93.7 -63.875,-155.522c-3.066,-61.819 15.569,-118.85 48.172,-161.078c32.603,-42.231 79.178,-69.659 131.997,-72.281c52.819,-2.619 101.881,20.065 138.503,58.862c36.625,38.797 60.809,93.7 63.875,155.522" style="fill:#fcc1b8;fill-rule:nonzero;"/><path d="M1773.5,565.883c3.066,61.819 -15.566,118.85 -48.169,161.081c-32.606,42.229 -79.181,69.657 -132,72.279c-52.819,2.618 -101.878,-20.066 -138.503,-58.863c-36.622,-38.797 -60.806,-93.7 -63.875,-155.522c-3.066,-61.819 15.569,-118.85 48.172,-161.078c32.603,-42.231 79.178,-69.659 131.997,-72.281c52.819,-2.619 101.881,20.065 138.503,58.862c36.625,38.797 60.809,93.7 63.875,155.522Z" style="fill:none;fill-rule:nonzero;stroke:#000;stroke-width:9.38px;"/><path d="M1602.81,574.795c0.159,3.206 -0.997,6.175 -2.994,8.378c-1.997,2.206 -4.834,3.65 -8.041,3.81c-3.209,0.159 -6.175,-0.997 -8.381,-2.994c-2.206,-1.997 -3.65,-4.835 -3.809,-8.041c-0.157,-3.206 0.997,-6.175 2.993,-8.381c1.997,-2.206 4.838,-3.65 8.044,-3.806c3.206,-0.16 6.175,0.993 8.378,2.993c2.207,1.997 3.65,4.835 3.81,8.041" style="fill:#040400;fill-rule:nonzero;"/><path d="M1478.29,613.546c0.159,3.206 -0.997,6.175 -2.994,8.378c-1.997,2.206 -4.834,3.65 -8.04,3.809c-3.21,0.16 -6.175,-0.996 -8.382,-2.993c-2.206,-1.997 -3.65,-4.835 -3.809,-8.041c-0.156,-3.206 0.997,-6.175 2.994,-8.381c1.997,-2.206 4.837,-3.65 8.043,-3.806c3.207,-0.16 6.175,0.993 8.379,2.993c2.206,1.997 3.65,4.835 3.809,8.041" style="fill:#040400;fill-rule:nonzero;"/><path d="M1536.23,644.402l-12.963,-7.097l-12.966,-7.1c-0.365,-0.2 -0.556,-0.56 -0.565,-0.925c-0.01,-0.366 0.159,-0.738 0.515,-0.957l24.344,-12.762l-8.265,-33.372l-8.266,-33.375" style="fill:none;fill-rule:nonzero;stroke:#000;stroke-width:9.38px;"/><path d="M1598.48,653.159c-0.669,6.859 -3.388,13.428 -7.669,19.053c-4.281,5.625 -10.122,10.306 -17.034,13.391c-7.51,3.35 -15.656,4.534 -23.381,3.662c-7.725,-0.872 -15.025,-3.797 -20.85,-8.669" style="fill:none;fill-rule:nonzero;stroke:#000;stroke-width:9.38px;"/><path d="M1555.75,531.693l35.447,-4.25l35.45,-4.25" style="fill:none;fill-rule:nonzero;stroke:#000;stroke-width:9.38px;"/><path d="M1487.54,549.379c-10.831,5.322 -21.659,10.644 -32.491,15.966c-10.828,5.322 -21.659,10.64 -32.487,15.962" style="fill:none;fill-rule:nonzero;stroke:#000;stroke-width:9.38px;"/><path d="M1770.88,618.198c0.894,-5.832 1.653,-12.082 2.184,-18.719c0.531,-6.635 0.838,-13.653 0.828,-21.019c-0.018,-13.816 -1.14,-26.609 -2.878,-38.197c-1.737,-11.59 -4.094,-21.975 -6.575,-30.975c3.931,-0.972 10.71,-2.337 18.372,-2.15c7.663,0.191 16.209,1.935 23.678,7.185c13.097,9.206 19.341,26.706 19.056,44.65c-0.284,17.946 -7.093,36.337 -20.106,47.328c-5.944,5.022 -12.534,7.953 -18.662,9.647c-6.128,1.696 -11.797,2.159 -15.897,2.25Z" style="fill:#fcc1b8;fill-rule:nonzero;stroke:#000;stroke-width:9.38px;"/><path d="M1680.95,609.874c0.419,8.454 -2.628,16.279 -7.893,22.091c-5.266,5.816 -12.747,9.622 -21.2,10.041c-8.457,0.418 -16.278,-2.628 -22.094,-7.891c-5.813,-5.266 -9.619,-12.75 -10.041,-21.203c-0.418,-8.453 2.628,-16.278 7.894,-22.091c5.266,-5.815 12.75,-9.622 21.203,-10.04c8.453,-0.422 16.275,2.625 22.091,7.89c5.815,5.266 9.622,12.75 10.04,21.203" style="fill:#ff6406;fill-rule:nonzero;"/><path d="M1680.95,609.874c0.419,8.454 -2.628,16.279 -7.893,22.091c-5.266,5.816 -12.747,9.622 -21.2,10.041c-8.457,0.418 -16.278,-2.628 -22.094,-7.891c-5.813,-5.266 -9.619,-12.75 -10.041,-21.203c-0.418,-8.453 2.628,-16.278 7.894,-22.091c5.266,-5.815 12.75,-9.622 21.203,-10.04c8.453,-0.422 16.275,2.625 22.091,7.89c5.815,5.266 9.622,12.75 10.04,21.203Z" style="fill:none;fill-rule:nonzero;stroke:#070707;stroke-width:9.38px;"/><path d="M1497.29,674.584c0.418,8.454 -2.629,16.279 -7.894,22.091c-5.266,5.816 -12.747,9.622 -21.2,10.041c-8.456,0.418 -16.278,-2.628 -22.094,-7.891c-5.812,-5.266 -9.619,-12.75 -10.041,-21.203c-0.418,-8.453 2.629,-16.278 7.894,-22.094c5.266,-5.812 12.75,-9.619 21.203,-10.037c8.453,-0.422 16.275,2.625 22.091,7.89c5.816,5.266 9.622,12.75 10.041,21.203" style="fill:#ff6406;fill-rule:nonzero;"/><path d="M1497.29,674.584c0.418,8.454 -2.629,16.279 -7.894,22.091c-5.266,5.816 -12.747,9.622 -21.2,10.041c-8.456,0.418 -16.278,-2.628 -22.094,-7.891c-5.812,-5.266 -9.619,-12.75 -10.041,-21.203c-0.418,-8.453 2.629,-16.278 7.894,-22.094c5.266,-5.812 12.75,-9.619 21.203,-10.037c8.453,-0.422 16.275,2.625 22.091,7.89c5.816,5.266 9.622,12.75 10.041,21.203Z" style="fill:none;fill-rule:nonzero;stroke:#070707;stroke-width:9.38px;"/><path d="M1411.76,677.084c-2.082,-5.147 -4.116,-10.569 -6.066,-16.259c-1.947,-5.691 -3.809,-11.653 -5.537,-17.882c-3.972,-14.29 -6.685,-27.94 -8.488,-40.696c-1.803,-12.757 -2.7,-24.625 -3.031,-35.35c-4.069,-0.382 -9.972,-0.594 -16.341,0.493c-6.369,1.088 -13.209,3.475 -19.153,8.303c-12.2,9.904 -14.862,27.644 -11.019,45.513c3.841,17.866 14.194,35.866 28.025,46.287c7.719,5.816 16.275,8.432 23.825,9.485c7.55,1.053 14.091,0.544 17.785,0.106Z" style="fill:#fcc1b8;fill-rule:nonzero;stroke:#000;stroke-width:9.38px;"/><path d="M1388.64,566.895c0,0 30.797,-1.647 68.116,-22.49c37.319,-20.844 81.159,-60.882 107.256,-137.663c0,0 16.035,35.063 48.628,65.422c32.594,30.359 81.75,56.013 147.988,37.191c1.372,-0.36 2.844,-0.7 4.409,-1c1.566,-0.303 3.225,-0.566 4.972,-0.775c2.569,-0.303 5,-0.447 7.263,-0.475c2.262,-0.032 4.359,0.053 6.259,0.2c0.506,-8.722 1.641,-35.485 -5.284,-67.738c-6.928,-32.253 -21.919,-69.997 -53.666,-100.681c-40.744,-39.384 -97.637,-57.013 -154.278,-54.109c-56.641,2.9 -113.025,26.331 -152.747,69.065c-38.991,41.947 -51.828,92.6 -54.584,134.16c-2.757,41.559 4.572,74.025 5.915,79.6c1.122,-0.285 2.347,-0.554 3.669,-0.779c1.322,-0.225 2.738,-0.406 4.241,-0.521c2.34,-0.182 4.525,-0.172 6.509,-0.047c1.988,0.122 3.778,0.362 5.334,0.64Z" style="fill:#040400;fill-rule:nonzero;stroke:#040400;stroke-width:9.38px;stroke-linecap:butt;"/><path d="M1764.72,180.806c-0,36.918 -14.966,70.343 -39.159,94.537c-24.194,24.197 -57.619,39.16 -94.538,39.16c-36.922,-0 -70.344,-14.963 -94.541,-39.16c-24.193,-24.194 -39.156,-57.619 -39.156,-94.537c0,-36.919 14.963,-70.344 39.156,-94.538c24.197,-24.197 57.619,-39.159 94.541,-39.159c36.919,-0 70.344,14.962 94.538,39.159c24.193,24.194 39.159,57.619 39.159,94.538" style="fill:#040400;fill-rule:nonzero;"/><path d="M1764.72,180.806c-0,36.918 -14.966,70.343 -39.159,94.537c-24.194,24.197 -57.619,39.16 -94.538,39.16c-36.922,-0 -70.344,-14.963 -94.541,-39.16c-24.193,-24.194 -39.156,-57.619 -39.156,-94.537c0,-36.919 14.963,-70.344 39.156,-94.538c24.197,-24.197 57.619,-39.159 94.541,-39.159c36.919,-0 70.344,14.962 94.538,39.159c24.193,24.194 39.159,57.619 39.159,94.538Z" style="fill:none;fill-rule:nonzero;stroke:#040400;stroke-width:9.38px;stroke-linecap:butt;"/><path d="M1076.82,755.399c-0.681,3.138 -0.028,6.254 1.581,8.757c1.61,2.503 4.172,4.39 7.31,5.075c3.137,0.681 6.256,0.025 8.756,-1.585c2.503,-1.606 4.394,-4.172 5.075,-7.309c0.681,-3.138 0.028,-6.253 -1.581,-8.756c-1.61,-2.503 -4.172,-4.391 -7.31,-5.072c-3.137,-0.685 -6.256,-0.028 -8.756,1.581c-2.503,1.609 -4.394,4.172 -5.075,7.309" style="fill:#040400;fill-rule:nonzero;"/><path d="M1218.72,795.641c-0.681,3.137 -0.028,6.253 1.581,8.756c1.61,2.503 4.172,4.391 7.31,5.075c3.137,0.681 6.256,0.025 8.756,-1.584c2.503,-1.606 4.394,-4.172 5.075,-7.31c0.681,-3.137 0.028,-6.253 -1.581,-8.756c-1.61,-2.503 -4.172,-4.39 -7.31,-5.072c-3.137,-0.684 -6.256,-0.028 -8.756,1.582c-2.503,1.609 -4.394,4.171 -5.075,7.309" style="fill:#040400;fill-rule:nonzero;"/><path d="M1152.12,818.303l13.2,-6.646l13.2,-6.65c0.372,-0.188 0.575,-0.541 0.597,-0.907c0.022,-0.365 -0.134,-0.74 -0.481,-0.972l-11.947,-6.796l-11.944,-6.794l9.407,-33.072l9.409,-33.069" style="fill:none;fill-rule:nonzero;stroke:#000;stroke-width:9.38px;"/><path d="M1087.25,853.935c1.547,6.715 5.09,12.878 10.062,17.906c4.969,5.025 11.366,8.916 18.616,11.081c7.881,2.356 16.112,2.481 23.659,0.619c7.547,-1.859 14.413,-5.703 19.56,-11.284" style="fill:none;fill-rule:nonzero;stroke:#000;stroke-width:9.38px;"/><path d="M1135.58,683.677l-71.319,-3.488" style="fill:none;fill-rule:nonzero;stroke:#000;stroke-width:9.38px;"/><path d="M1228.79,719.729c10.846,5.284 21.693,10.572 32.54,15.856c10.85,5.288 21.697,10.572 32.544,15.856" style="fill:none;fill-rule:nonzero;stroke:#000;stroke-width:9.38px;"/><path d="M1012.81,803.229c-1.797,8.272 -0.072,16.487 4.169,23.084c4.244,6.6 11.003,11.578 19.275,13.378c8.269,1.797 16.487,0.072 23.084,-4.172c6.597,-4.24 11.578,-11 13.375,-19.271c1.797,-8.272 0.072,-16.488 -4.169,-23.085c-4.243,-6.6 -11.003,-11.578 -19.271,-13.378c-8.272,-1.797 -16.488,-0.072 -23.088,4.172c-6.597,4.241 -11.578,11 -13.375,19.272" style="fill:#ff6406;fill-rule:nonzero;"/><path d="M1012.81,803.229c-1.797,8.272 -0.072,16.487 4.169,23.084c4.244,6.6 11.003,11.578 19.275,13.378c8.269,1.797 16.487,0.072 23.084,-4.172c6.597,-4.24 11.578,-11 13.375,-19.271c1.797,-8.272 0.072,-16.488 -4.169,-23.085c-4.243,-6.6 -11.003,-11.578 -19.271,-13.378c-8.272,-1.797 -16.488,-0.072 -23.088,4.172c-6.597,4.241 -11.578,11 -13.375,19.272Z" style="fill:none;fill-rule:nonzero;stroke:#070707;stroke-width:9.38px;"/><path d="M1194.59,856.091c-1.797,8.272 -0.072,16.487 4.169,23.084c4.243,6.6 11.003,11.578 19.275,13.378c8.268,1.797 16.487,0.072 23.084,-4.171c6.597,-4.241 11.578,-11 13.375,-19.272c1.797,-8.272 0.072,-16.488 -4.169,-23.085c-4.243,-6.6 -11.003,-11.578 -19.272,-13.378c-8.271,-1.797 -16.487,-0.072 -23.087,4.172c-6.597,4.241 -11.578,11 -13.375,19.272" style="fill:#ff6406;fill-rule:nonzero;"/><path d="M1194.59,856.091c-1.797,8.272 -0.072,16.487 4.169,23.084c4.243,6.6 11.003,11.578 19.275,13.378c8.268,1.797 16.487,0.072 23.084,-4.171c6.597,-4.241 11.578,-11 13.375,-19.272c1.797,-8.272 0.072,-16.488 -4.169,-23.085c-4.243,-6.6 -11.003,-11.578 -19.272,-13.378c-8.271,-1.797 -16.487,-0.072 -23.087,4.172c-6.597,4.241 -11.578,11 -13.375,19.272Z" style="fill:none;fill-rule:nonzero;stroke:#070707;stroke-width:9.38px;"/><path d="M1283.88,816.017c-2.016,7.156 -6.753,12.822 -12.778,16.197c-6.022,3.375 -13.331,4.456 -20.485,2.441l-18.303,-5.16l-18.3,-5.156c-3.465,-0.975 -6.637,-2.597 -9.381,-4.759c-2.744,-2.163 -5.062,-4.869 -6.825,-8.01c-1.759,-3.14 -2.853,-6.531 -3.266,-10c-0.412,-3.472 -0.14,-7.025 0.838,-10.487c0.975,-3.469 2.597,-6.641 4.762,-9.385c2.163,-2.746 4.869,-5.065 8.01,-6.825c3.14,-1.759 6.525,-2.856 9.997,-3.265c3.468,-0.413 7.022,-0.141 10.49,0.834l18.3,5.156l18.303,5.157c7.154,2.018 12.822,6.756 16.197,12.778c3.375,6.022 4.457,13.331 2.441,20.484m-163.469,-29.837c-3.14,1.759 -6.531,2.853 -10,3.265c-3.472,0.413 -7.025,0.141 -10.49,-0.837l-46.863,-13.206c-7.156,-2.016 -12.822,-6.754 -16.197,-12.775c-3.375,-6.022 -4.459,-13.329 -2.444,-20.485c2.019,-7.153 6.76,-12.822 12.782,-16.197c6.022,-3.375 13.331,-4.459 20.481,-2.44l23.434,6.603l23.432,6.603c7.156,2.016 12.821,6.753 16.196,12.775c3.375,6.025 4.457,13.331 2.441,20.484c-0.975,3.466 -2.6,6.638 -4.762,9.385c-2.163,2.743 -4.866,5.062 -8.01,6.825m148.644,-16.96l-18.3,-5.156l-18.303,-5.156c-5.278,-1.488 -10.681,-1.903 -15.963,-1.275c-5.278,0.628 -10.434,2.297 -15.215,4.972c-3.378,1.893 -6.413,4.218 -9.063,6.897c-2.647,2.675 -4.906,5.706 -6.731,9.015l-18.75,-5.762l-18.747,-5.763c1.041,-9.759 -1.487,-19.337 -6.716,-27.165c-5.225,-7.829 -13.153,-13.904 -22.906,-16.654l-23.434,-6.6l-23.435,-6.603c-10.881,-3.065 -21.996,-1.418 -31.162,3.716c-9.166,5.134 -16.378,13.756 -19.447,24.644c-3.066,10.884 -1.419,22.003 3.716,31.168c5.134,9.163 13.759,16.372 24.647,19.441l23.431,6.603l23.434,6.603c1.681,0.475 3.378,0.838 5.078,1.097c1.703,0.256 3.41,0.406 5.113,0.447c3.634,0.088 7.253,-0.309 10.778,-1.187c3.525,-0.879 6.956,-2.232 10.209,-4.057c3.716,-2.081 7.025,-4.684 9.853,-7.703c2.832,-3.022 5.185,-6.462 6.994,-10.222l18.363,5.644l18.359,5.644c-0.75,4.565 -0.728,9.178 0.056,13.669c0.785,4.493 2.332,8.868 4.628,12.968c2.679,4.778 6.207,8.894 10.385,12.185c4.178,3.293 9.003,5.762 14.278,7.247l18.3,5.156l18.3,5.159c1.687,0.472 3.378,0.835 5.066,1.088c1.687,0.253 3.375,0.4 5.05,0.44c9.143,0.225 17.971,-2.65 25.159,-7.878c7.191,-5.228 12.741,-12.812 15.334,-22.012c3.066,-10.885 1.419,-22.003 -3.715,-31.169c-5.135,-9.163 -13.757,-16.372 -24.644,-19.441" style="fill:#84a1e5;fill-rule:nonzero;"/><path d="M1283.88,816.017c-2.016,7.156 -6.753,12.822 -12.778,16.197c-6.022,3.375 -13.331,4.456 -20.485,2.441l-18.303,-5.16l-18.3,-5.156c-3.465,-0.975 -6.637,-2.597 -9.381,-4.759c-2.744,-2.163 -5.062,-4.869 -6.825,-8.01c-1.759,-3.14 -2.853,-6.531 -3.266,-10c-0.412,-3.472 -0.14,-7.025 0.838,-10.487c0.975,-3.469 2.597,-6.641 4.762,-9.385c2.163,-2.746 4.869,-5.065 8.01,-6.825c3.14,-1.759 6.525,-2.856 9.997,-3.265c3.468,-0.413 7.022,-0.141 10.49,0.834l18.3,5.156l18.303,5.157c7.154,2.018 12.822,6.756 16.197,12.778c3.375,6.022 4.457,13.331 2.441,20.484Zm-163.469,-29.837c-3.14,1.759 -6.531,2.853 -10,3.265c-3.472,0.413 -7.025,0.141 -10.49,-0.837l-46.863,-13.206c-7.156,-2.016 -12.822,-6.754 -16.197,-12.775c-3.375,-6.022 -4.459,-13.329 -2.444,-20.485c2.019,-7.153 6.76,-12.822 12.782,-16.197c6.022,-3.375 13.331,-4.459 20.481,-2.44l23.434,6.603l23.432,6.603c7.156,2.016 12.821,6.753 16.196,12.775c3.375,6.025 4.457,13.331 2.441,20.484c-0.975,3.466 -2.6,6.638 -4.762,9.385c-2.163,2.743 -4.866,5.062 -8.01,6.825Zm148.644,-16.96l-18.3,-5.156l-18.303,-5.156c-5.278,-1.488 -10.681,-1.903 -15.963,-1.275c-5.278,0.628 -10.434,2.297 -15.215,4.972c-3.378,1.893 -6.413,4.218 -9.063,6.897c-2.647,2.675 -4.906,5.706 -6.731,9.015l-18.75,-5.762l-18.747,-5.763c1.041,-9.759 -1.487,-19.337 -6.716,-27.165c-5.225,-7.829 -13.153,-13.904 -22.906,-16.654l-23.434,-6.6l-23.435,-6.603c-10.881,-3.065 -21.996,-1.418 -31.162,3.716c-9.166,5.134 -16.378,13.756 -19.447,24.644c-3.066,10.884 -1.419,22.003 3.716,31.168c5.134,9.163 13.759,16.372 24.647,19.441l23.431,6.603l23.434,6.603c1.681,0.475 3.378,0.838 5.078,1.097c1.703,0.256 3.41,0.406 5.113,0.447c3.634,0.088 7.253,-0.309 10.778,-1.187c3.525,-0.879 6.956,-2.232 10.209,-4.057c3.716,-2.081 7.025,-4.684 9.853,-7.703c2.832,-3.022 5.185,-6.462 6.994,-10.222l18.363,5.644l18.359,5.644c-0.75,4.565 -0.728,9.178 0.056,13.669c0.785,4.493 2.332,8.868 4.628,12.968c2.679,4.778 6.207,8.894 10.385,12.185c4.178,3.293 9.003,5.762 14.278,7.247l18.3,5.156l18.3,5.159c1.687,0.472 3.378,0.835 5.066,1.088c1.687,0.253 3.375,0.4 5.05,0.44c9.143,0.225 17.971,-2.65 25.159,-7.878c7.191,-5.228 12.741,-12.812 15.334,-22.012c3.066,-10.885 1.419,-22.003 -3.715,-31.169c-5.135,-9.163 -13.757,-16.372 -24.644,-19.441Z" style="fill:none;fill-rule:nonzero;stroke:#070707;stroke-width:9.38px;"/><path d="M786.438,1910.45c-1.978,-2.422 -5.34,-6.175 -10.134,-9.828c-4.794,-3.653 -11.019,-7.206 -18.722,-9.228c-14.284,-3.753 -27.34,-0.591 -37.506,4.159c-10.169,4.75 -17.45,11.088 -20.188,13.678c-0.531,0.507 -1.065,1.01 -1.6,1.507c-0.534,0.5 -1.071,0.996 -1.615,1.487c-25.869,23.281 -51.735,46.563 -77.603,69.844c-25.866,23.278 -51.732,46.559 -77.6,69.84c-0.894,0.807 -1.816,1.585 -2.741,2.354c-0.928,0.768 -1.859,1.531 -2.781,2.309c-12.347,10.406 -19.097,24.981 -20.188,39.772c-1.093,14.794 3.475,29.8 13.772,41.069c10.338,11.309 24.938,17.206 39.819,17.409c14.881,0.203 30.044,-5.288 41.497,-16.753c0.853,-0.856 1.697,-1.722 2.55,-2.581c0.853,-0.857 1.712,-1.704 2.603,-2.522c25.547,-23.497 51.094,-46.994 76.641,-70.491c25.546,-23.497 51.093,-46.994 76.643,-70.487c1.11,-1.004 9.66,-8.941 16.863,-20.719c7.203,-11.781 13.056,-27.406 8.775,-43.788c-0.61,-2.337 -1.51,-5.003 -2.866,-7.884c-1.359,-2.878 -3.175,-5.966 -5.619,-9.147" style="fill:#ece7e1;fill-rule:nonzero;"/><path d="M786.438,1910.45c-1.978,-2.422 -5.34,-6.175 -10.134,-9.828c-4.794,-3.653 -11.019,-7.206 -18.722,-9.228c-14.284,-3.753 -27.34,-0.591 -37.506,4.159c-10.169,4.75 -17.45,11.088 -20.188,13.678c-0.531,0.507 -1.065,1.01 -1.6,1.507c-0.534,0.5 -1.071,0.996 -1.615,1.487c-25.869,23.281 -51.735,46.563 -77.603,69.844c-25.866,23.278 -51.732,46.559 -77.6,69.84c-0.894,0.807 -1.816,1.585 -2.741,2.354c-0.928,0.768 -1.859,1.531 -2.781,2.309c-12.347,10.406 -19.097,24.981 -20.188,39.772c-1.093,14.794 3.475,29.8 13.772,41.069c10.338,11.309 24.938,17.206 39.819,17.409c14.881,0.203 30.044,-5.288 41.497,-16.753c0.853,-0.856 1.697,-1.722 2.55,-2.581c0.853,-0.857 1.712,-1.704 2.603,-2.522c25.547,-23.497 51.094,-46.994 76.641,-70.491c25.546,-23.497 51.093,-46.994 76.643,-70.487c1.11,-1.004 9.66,-8.941 16.863,-20.719c7.203,-11.781 13.056,-27.406 8.775,-43.788c-0.61,-2.337 -1.51,-5.003 -2.866,-7.884c-1.359,-2.878 -3.175,-5.966 -5.619,-9.147Z" style="fill:none;fill-rule:nonzero;stroke:#000;stroke-width:9.38px;"/><path d="M1114.06,1289.39c-0.463,-4.166 -0.831,-8.503 -1.081,-13.003c-0.25,-4.497 -0.378,-9.154 -0.36,-13.963c0.063,-14.803 1.519,-28.509 3.753,-40.925c2.238,-12.412 5.25,-23.537 8.422,-33.175c-3.575,-1.134 -8.822,-2.475 -14.74,-2.741c-5.919,-0.265 -12.513,0.544 -18.782,3.713c-12.859,6.497 -21.196,21.331 -23.731,37.547c-2.534,16.215 0.738,33.815 11.1,45.85c5.785,6.715 12.944,10.725 19.503,13.14c6.56,2.413 12.522,3.229 15.916,3.557Z" style="fill:#d87d61;fill-rule:nonzero;stroke:#000;stroke-width:9.38px;"/><path d="M936.713,1995.53l-40.431,-38.234l-40.431,-38.238c-0,0 -16.516,-13.55 -39.697,-16.453c-23.182,-2.9 -53.028,4.844 -79.7,47.428l-53.407,91.75l-53.403,91.75c-7.109,13.166 -8.493,27.904 -5.128,41.238c3.366,13.331 11.481,25.259 23.369,32.806c12.853,8.16 28.369,10.085 42.697,6.453c14.328,-3.631 27.465,-12.818 35.569,-26.881c11.553,-17.669 23.106,-35.334 34.659,-53.003c11.553,-17.669 23.106,-35.334 34.659,-53.003l141.244,-85.613Z" style="fill:#ece7e1;fill-rule:nonzero;stroke:#000;stroke-width:9.38px;"/><path d="M509.649,1634.71c0,8.807 -3.569,16.775 -9.337,22.547c-5.772,5.769 -13.744,9.338 -22.547,9.338c-8.807,-0 -16.778,-3.569 -22.547,-9.338c-5.772,-5.772 -9.341,-13.74 -9.341,-22.547c0,-8.806 3.569,-16.775 9.341,-22.547c5.769,-5.768 13.74,-9.337 22.547,-9.337c8.803,-0 16.775,3.569 22.547,9.337c5.768,5.772 9.337,13.741 9.337,22.547" style="fill:#040400;fill-rule:nonzero;"/><path d="M509.649,1634.71c0,8.807 -3.569,16.775 -9.337,22.547c-5.772,5.769 -13.744,9.338 -22.547,9.338c-8.807,-0 -16.778,-3.569 -22.547,-9.338c-5.772,-5.772 -9.341,-13.74 -9.341,-22.547c0,-8.806 3.569,-16.775 9.341,-22.547c5.769,-5.768 13.74,-9.337 22.547,-9.337c8.803,-0 16.775,3.569 22.547,9.337c5.768,5.772 9.337,13.741 9.337,22.547Z" style="fill:none;fill-rule:nonzero;stroke:#040400;stroke-width:9.38px;stroke-linecap:butt;"/><path d="M791.122,2087.79c5.493,-8.885 10.99,-17.769 16.484,-26.653c5.494,-8.885 10.991,-17.769 16.484,-26.653" style="fill:none;fill-rule:nonzero;stroke:#000;stroke-width:9.38px;"/><path d="M2068.69,1542.53c-2.922,13.284 -4.944,31.806 -5.525,52.756c-21.178,0.544 -39.797,2.109 -53.119,4.322c-13.321,2.212 -21.35,5.075 -21.35,8.197c0,3.122 8.029,5.978 21.35,8.194c13.322,2.212 31.941,3.781 53.119,4.321c0.581,20.95 2.603,39.469 5.525,52.757c2.922,13.284 6.744,21.334 10.928,21.334c4.185,0 8.007,-8.05 10.928,-21.334c2.922,-13.288 4.944,-31.807 5.525,-52.757c21.182,-0.54 39.797,-2.109 53.119,-4.321c13.322,-2.216 21.35,-5.072 21.35,-8.194c0,-3.122 -8.028,-5.985 -21.35,-8.197c-13.322,-2.213 -31.937,-3.778 -53.119,-4.322c-0.581,-20.95 -2.603,-39.472 -5.525,-52.756c-2.921,-13.285 -6.743,-21.331 -10.928,-21.331c-4.184,-0 -8.006,8.046 -10.928,21.331Z" style="fill:url(#_Linear1);fill-rule:nonzero;"/><path d="M2170.54,1607.8c0,-3.122 -8.028,-5.981 -21.35,-8.193c-13.322,-2.213 -31.94,-3.782 -53.115,-4.325c-0.585,-20.947 -2.607,-39.469 -5.529,-52.754c-2.921,-13.287 -6.743,-21.334 -10.928,-21.334c-4.184,0 -8.006,8.047 -10.928,21.334c-2.922,13.285 -4.944,31.807 -5.525,52.754c-21.178,0.543 -39.794,2.112 -53.115,4.325c-13.322,2.212 -21.35,5.071 -21.35,8.193c-0,3.122 8.028,5.982 21.35,8.194c13.321,2.213 31.937,3.781 53.115,4.325c0.581,20.947 2.603,39.469 5.525,52.753c2.922,13.285 6.744,21.335 10.928,21.335c4.185,-0 8.007,-8.05 10.928,-21.335c2.922,-13.284 4.944,-31.806 5.529,-52.753c21.175,-0.544 39.793,-2.112 53.115,-4.325c13.322,-2.212 21.35,-5.072 21.35,-8.194Z" style="fill:#e2dcfe;fill-rule:nonzero;stroke:#000;stroke-width:9.38px;"/><path d="M339.275,654.109c-3.566,16.213 -6.032,38.813 -6.741,64.375c-25.844,0.663 -48.559,2.575 -64.816,5.275c-16.256,2.7 -26.053,6.191 -26.053,10c0,3.806 9.797,7.297 26.053,9.997c16.257,2.7 38.972,4.616 64.816,5.278c0.709,25.563 3.175,48.163 6.741,64.375c3.565,16.213 8.231,26.028 13.337,26.028c5.106,0 9.769,-9.815 13.335,-26.028c3.565,-16.212 6.031,-38.812 6.74,-64.375c25.844,-0.662 48.563,-2.578 64.819,-5.278c16.256,-2.7 26.05,-6.191 26.05,-9.997c-0,-3.809 -9.794,-7.3 -26.05,-10c-16.256,-2.7 -38.975,-4.612 -64.819,-5.275c-0.709,-25.562 -3.175,-48.162 -6.74,-64.375c-3.566,-16.212 -8.229,-26.031 -13.335,-26.031c-5.106,-0 -9.772,9.819 -13.337,26.031Z" style="fill:url(#_Linear2);fill-rule:nonzero;"/><path d="M463.558,733.758c-0,-3.809 -9.797,-7.296 -26.053,-9.996c-16.257,-2.704 -38.972,-4.616 -64.816,-5.279c-0.709,-25.562 -3.178,-48.162 -6.744,-64.375c-3.565,-16.209 -8.228,-26.031 -13.334,-26.031c-5.106,0 -9.769,9.822 -13.334,26.031c-3.566,16.213 -6.035,38.813 -6.744,64.375c-25.841,0.663 -48.56,2.575 -64.816,5.279c-16.256,2.7 -26.053,6.187 -26.053,9.996c0,3.81 9.797,7.297 26.053,9.997c16.256,2.703 38.975,4.616 64.816,5.278c0.709,25.563 3.178,48.163 6.744,64.375c3.565,16.21 8.228,26.032 13.334,26.032c5.106,-0 9.769,-9.822 13.334,-26.032c3.566,-16.212 6.035,-38.812 6.744,-64.375c25.844,-0.662 48.559,-2.575 64.816,-5.278c16.256,-2.7 26.053,-6.187 26.053,-9.997Z" style="fill:#c7bef8;fill-rule:nonzero;stroke:#000;stroke-width:9.38px;"/><path d="M2151.9,400.709c-6.191,30.041 -12.738,48.513 -25.247,61.022c-12.509,12.509 -30.981,19.056 -61.022,25.247c-1.562,0.322 -2.341,1.597 -2.341,2.869c0,1.271 0.779,2.546 2.341,2.865c30.041,6.191 48.513,12.741 61.022,25.25c12.509,12.513 19.056,30.985 25.247,61.022c0.322,1.559 1.597,2.344 2.869,2.344c1.271,-0 2.546,-0.785 2.868,-2.344c6.188,-30.037 12.738,-48.509 25.25,-61.022c12.51,-12.509 30.982,-19.059 61.019,-25.25c1.559,-0.319 2.344,-1.594 2.344,-2.865c-0,-1.272 -0.785,-2.547 -2.344,-2.869c-30.037,-6.191 -48.509,-12.738 -61.019,-25.247c-12.512,-12.509 -19.062,-30.981 -25.25,-61.022c-0.322,-1.562 -1.597,-2.341 -2.868,-2.341c-1.272,0 -2.547,0.779 -2.869,2.341Z" style="fill:url(#_Linear3);fill-rule:nonzero;"/><path d="M2243.91,492.715c-30.041,6.19 -48.513,12.737 -61.022,25.247c-12.509,12.512 -19.059,30.984 -25.247,61.021c-0.322,1.563 -1.597,2.344 -2.869,2.344c-1.275,0 -2.546,-0.781 -2.868,-2.344c-6.191,-30.037 -12.738,-48.509 -25.247,-61.021c-12.51,-12.51 -30.985,-19.057 -61.022,-25.247c-1.563,-0.322 -2.341,-1.594 -2.341,-2.869c0,-1.272 0.778,-2.547 2.341,-2.869c30.037,-6.187 48.512,-12.737 61.022,-25.247c12.509,-12.509 19.056,-30.981 25.247,-61.022c0.322,-1.559 1.593,-2.34 2.868,-2.34c1.272,-0 2.547,0.781 2.869,2.34c6.188,30.041 12.738,48.513 25.247,61.022c12.509,12.51 30.981,19.06 61.022,25.247c1.559,0.322 2.341,1.597 2.341,2.869c-0,1.275 -0.782,2.547 -2.341,2.869Z" style="fill:#c7bef8;fill-rule:nonzero;stroke:#000;stroke-width:9.38px;"/><path d="M225.268,853.059c-3.7,17.297 -7.734,28.131 -15.168,35.566c-7.432,7.431 -18.266,11.465 -35.563,15.165c-1.212,0.263 -1.822,1.253 -1.822,2.247c0,0.991 0.61,1.985 1.822,2.244c17.297,3.7 28.131,7.737 35.563,15.169c7.434,7.434 11.468,18.265 15.168,35.565c0.263,1.213 1.25,1.819 2.244,1.819c0.994,0 1.985,-0.606 2.244,-1.819c3.703,-17.3 7.737,-28.131 15.172,-35.565c7.434,-7.432 18.262,-11.469 35.562,-15.169c1.213,-0.259 1.822,-1.253 1.822,-2.244c0,-0.994 -0.609,-1.984 -1.822,-2.247c-17.3,-3.7 -28.128,-7.734 -35.562,-15.165c-7.435,-7.435 -11.469,-18.269 -15.172,-35.566c-0.259,-1.212 -1.25,-1.819 -2.244,-1.819c-0.994,0 -1.981,0.607 -2.244,1.819Z" style="fill:url(#_Linear4);fill-rule:nonzero;"/><path d="M280.49,908.281c-17.297,3.7 -28.131,7.734 -35.563,15.169c-7.434,7.434 -11.468,18.265 -15.168,35.562c-0.26,1.216 -1.253,1.822 -2.247,1.822c-0.991,0 -1.985,-0.606 -2.244,-1.822c-3.7,-17.297 -7.734,-28.128 -15.169,-35.562c-7.434,-7.435 -18.265,-11.469 -35.562,-15.169c-1.213,-0.259 -1.822,-1.253 -1.822,-2.244c-0,-0.994 0.609,-1.984 1.822,-2.244c17.297,-3.703 28.128,-7.737 35.562,-15.168c7.435,-7.435 11.469,-18.269 15.169,-35.566c0.259,-1.212 1.253,-1.819 2.244,-1.819c0.994,0 1.987,0.607 2.247,1.819c3.7,17.297 7.734,28.131 15.168,35.566c7.432,7.431 18.266,11.465 35.563,15.168c1.212,0.26 1.819,1.25 1.819,2.244c-0,0.991 -0.607,1.985 -1.819,2.244Z" style="fill:#c7bef8;fill-rule:nonzero;stroke:#000;stroke-width:9.38px;"/><path d="M2146.31,1731.38c-6.206,6.203 -10.05,14.775 -10.05,24.225c0,9.453 3.844,18.018 10.05,24.225c6.206,6.209 14.778,10.053 24.228,10.053c9.45,-0 18.019,-3.844 24.225,-10.053c6.206,-6.207 10.05,-14.772 10.05,-24.225c0,-9.45 -3.844,-18.022 -10.05,-24.225c-6.206,-6.207 -14.775,-10.053 -24.225,-10.053c-9.45,-0 -18.022,3.846 -24.228,10.053Zm13.253,35.2c-2.812,-2.81 -4.553,-6.694 -4.553,-10.975c0,-4.282 1.741,-8.163 4.553,-10.975c2.81,-2.81 6.694,-4.55 10.975,-4.55c4.281,-0 8.163,1.74 10.975,4.55c2.813,2.812 4.553,6.693 4.553,10.975c0,4.281 -1.74,8.165 -4.553,10.975c-2.812,2.812 -6.694,4.553 -10.975,4.553c-4.281,-0 -8.165,-1.741 -10.975,-4.553Z" style="fill:url(#_Linear5);fill-rule:nonzero;"/><path d="M2170.54,1740.07c-4.281,-0 -8.162,1.74 -10.975,4.553c-2.812,2.812 -4.553,6.694 -4.553,10.975c0,4.281 1.741,8.162 4.553,10.975c2.813,2.809 6.694,4.553 10.975,4.553c4.281,0 8.163,-1.744 10.975,-4.553c2.813,-2.813 4.553,-6.694 4.553,-10.975c0,-4.281 -1.74,-8.163 -4.553,-10.975c-2.812,-2.813 -6.694,-4.553 -10.975,-4.553Zm0,49.806c-9.45,0 -18.019,-3.847 -24.225,-10.053c-6.209,-6.206 -10.053,-14.775 -10.053,-24.225c0,-9.45 3.844,-18.022 10.053,-24.228c6.206,-6.206 14.775,-10.05 24.225,-10.05c9.45,-0 18.019,3.844 24.225,10.05c6.21,6.206 10.053,14.778 10.053,24.228c0,9.45 -3.843,18.019 -10.053,24.225c-6.206,6.206 -14.775,10.053 -24.225,10.053Z" style="fill:#e2dcfe;fill-rule:nonzero;stroke:#000;stroke-width:9.38px;"/><path d="M781.338,1694.99c2.403,0.997 4.956,1.984 7.65,2.937c2.694,0.953 5.528,1.872 8.503,2.738c4.253,1.234 8.347,2.225 12.238,3.019c3.89,0.79 7.581,1.387 11.031,1.837" style="fill:#ece7e1;fill-rule:nonzero;stroke:#000;stroke-width:9.38px;"/><path d="M1816.75,1529.04c20.416,-59.887 37.185,-109.066 48.847,-143.278c11.663,-34.209 18.222,-53.45 18.225,-53.456c0,-0 3.122,3.95 21.872,27.678c18.753,23.728 53.134,67.234 115.656,146.347l21.51,-184.682l21.512,-184.678c-0.565,6.882 -2.875,30.869 -13.969,59.928c-11.09,29.06 -30.962,63.194 -66.653,90.375c-6.847,5.216 -23.456,17.538 -47.384,27.441c-23.931,9.903 -55.181,17.388 -91.319,12.925c-47.965,-5.925 -83.447,-30.291 -107.465,-54.203c-24.019,-23.913 -36.575,-47.369 -38.694,-51.472c17.112,44.931 34.278,89.85 51.497,134.753c17.218,44.903 34.487,89.791 51.812,134.666c1.866,4.825 4.569,11.828 7.275,18.828c2.706,7 5.413,14.003 7.278,18.828Z" style="fill:#dbcaf4;fill-rule:nonzero;stroke:#000;stroke-width:9.38px;"/><path d="M2208.73,1953.54l-41.316,186.915l-41.319,186.916" style="fill:#dbcaf4;fill-rule:nonzero;stroke:#000;stroke-width:9.38px;"/><path d="M1151.54,611.393c0.809,-0.791 1.628,-1.628 2.45,-2.519c0.825,-0.887 1.653,-1.828 2.478,-2.822c2.081,-2.503 3.856,-4.994 5.372,-7.397c1.518,-2.4 2.775,-4.709 3.822,-6.856" style="fill:none;fill-rule:nonzero;stroke:#070707;stroke-width:9.38px;"/><path d="M361.473,1537.76c-2.7,-7.344 -4.719,-15.303 -6.716,-22.859c-1.994,-7.554 -3.965,-14.704 -6.572,-20.422c-4.856,-10.657 -10.597,-23.728 -18.465,-33.957c-7.869,-10.231 -17.866,-17.625 -31.238,-16.931c-0.003,0 -5.659,0.294 -9.906,8.675c-4.25,8.381 -7.091,24.853 -1.469,57.203c3.731,21.469 9.885,42.375 18.206,62.391c8.319,20.016 18.81,39.144 31.213,57.062l32.353,46.735l32.356,46.737c3.363,4.86 6.125,10.107 8.144,15.613c2.022,5.509 3.297,11.275 3.691,17.172c0.531,8.003 -0.491,16.584 -5.272,23.187c-4.785,6.603 -13.331,11.225 -27.856,11.303c-0,0 10.815,11.891 18.543,26.5c7.728,14.607 12.366,31.928 0.016,42.785c-0,-0 -7.119,7.665 -19.106,8.059c-11.988,0.394 -28.847,-6.481 -48.328,-35.562c-0,-0 -6.625,16.4 -19.96,23.212c-13.334,6.809 -33.381,4.031 -60.219,-34.328c0,-0 -8.25,15.534 -26.221,13.172c-17.972,-2.36 -45.669,-22.622 -84.566,-94.216c-5.425,-9.984 -10.991,-19.897 -16.641,-29.762c-5.65,-9.863 -11.387,-19.678 -17.153,-29.472c-18.565,-31.531 -46.784,-87.613 -56.097,-150.169c-9.312,-62.556 0.282,-131.584 57.341,-189.016c12.547,-12.628 26.884,-23.284 42.5,-31.346c15.612,-8.063 32.506,-13.532 50.169,-15.785c23.797,-3.034 52.225,-1.037 81.881,13.413c29.659,14.447 60.544,41.34 89.253,88.097c0,-0 15.356,24.568 28.738,55.8c13.378,31.231 24.784,69.125 16.884,95.771c-1.919,6.472 -6.072,11.879 -11.397,15.307c-5.325,3.431 -11.819,4.884 -18.412,3.447c-0.341,-0.075 -0.685,-0.157 -1.032,-0.247c-0.347,-0.091 -0.693,-0.188 -1.043,-0.291c-6.104,-1.841 -10.838,-5.478 -14.632,-10.247c-3.793,-4.769 -6.647,-10.669 -8.987,-17.031" style="fill:#fcc1b8;fill-rule:nonzero;"/><path d="M361.473,1537.76c-2.7,-7.344 -4.719,-15.303 -6.716,-22.859c-1.994,-7.554 -3.965,-14.704 -6.572,-20.422c-4.856,-10.657 -10.597,-23.728 -18.465,-33.957c-7.869,-10.231 -17.866,-17.625 -31.238,-16.931c-0.003,0 -5.659,0.294 -9.906,8.675c-4.25,8.381 -7.091,24.853 -1.469,57.203c3.731,21.469 9.885,42.375 18.206,62.391c8.319,20.016 18.81,39.144 31.213,57.062l32.353,46.735l32.356,46.737c3.363,4.86 6.125,10.107 8.144,15.613c2.022,5.509 3.297,11.275 3.691,17.172c0.531,8.003 -0.491,16.584 -5.272,23.187c-4.785,6.603 -13.331,11.225 -27.856,11.303c-0,0 10.815,11.891 18.543,26.5c7.728,14.607 12.366,31.928 0.016,42.785c-0,-0 -7.119,7.665 -19.106,8.059c-11.988,0.394 -28.847,-6.481 -48.328,-35.562c-0,-0 -6.625,16.4 -19.96,23.212c-13.334,6.809 -33.381,4.031 -60.219,-34.328c0,-0 -8.25,15.534 -26.221,13.172c-17.972,-2.36 -45.669,-22.622 -84.566,-94.216c-5.425,-9.984 -10.991,-19.897 -16.641,-29.762c-5.65,-9.863 -11.387,-19.678 -17.153,-29.472c-18.565,-31.531 -46.784,-87.613 -56.097,-150.169c-9.312,-62.556 0.282,-131.584 57.341,-189.016c12.547,-12.628 26.884,-23.284 42.5,-31.346c15.612,-8.063 32.506,-13.532 50.169,-15.785c23.797,-3.034 52.225,-1.037 81.881,13.413c29.659,14.447 60.544,41.34 89.253,88.097c0,-0 15.356,24.568 28.738,55.8c13.378,31.231 24.784,69.125 16.884,95.771c-1.919,6.472 -6.072,11.879 -11.397,15.307c-5.325,3.431 -11.819,4.884 -18.412,3.447c-0.341,-0.075 -0.685,-0.157 -1.032,-0.247c-0.347,-0.091 -0.693,-0.188 -1.043,-0.291c-6.104,-1.841 -10.838,-5.478 -14.632,-10.247c-3.793,-4.769 -6.647,-10.669 -8.987,-17.031Z" style="fill:none;fill-rule:nonzero;stroke:#000;stroke-width:9.38px;"/><path d="M256.883,1600.93c10.74,20.122 22.509,40.891 35.412,62.141c12.903,21.25 26.941,42.984 42.219,65.028c7.566,10.919 15.15,21.506 22.731,31.762c7.582,10.26 15.157,20.191 22.697,29.8" style="fill:none;fill-rule:nonzero;stroke:#000;stroke-width:9.38px;"/><path d="M206.222,1633.27c0,-0 21.941,38.444 48.516,82.434c26.578,43.994 57.788,93.538 76.328,115.738" style="fill:none;fill-rule:nonzero;stroke:#000;stroke-width:9.38px;"/><path d="M158.626,1663.59c15.378,26.121 30.753,52.246 46.131,78.368c15.375,26.125 30.753,52.247 46.128,78.369" style="fill:none;fill-rule:nonzero;stroke:#000;stroke-width:9.38px;"/><path d="M586.495,893.258c11.947,22.818 23.662,47.106 34.856,72.865c11.197,25.756 21.869,52.988 31.725,81.691c36.022,104.9 52.778,205.122 58.453,295.172c5.675,90.05 0.269,169.928 -8.031,234.15" style="fill:none;fill-rule:nonzero;stroke:#000;stroke-width:9.38px;"/><path d="M872.26,808.125c-1.434,2.994 -3.528,7.91 -4.972,14.238c-1.444,6.325 -2.237,14.062 -1.078,22.697c1.966,14.618 8.734,25.818 15.478,33.665c6.744,7.847 13.466,12.344 15.341,13.56c-0.482,1.547 -2.475,8.297 -2.488,17.4c-0.012,9.103 1.953,20.559 9.385,31.506c5.687,8.381 13.515,14.897 22.512,19.119c8.997,4.218 19.163,6.14 29.525,5.334c-0.022,0.703 -0.137,8.525 2.944,18.197c3.081,9.672 9.359,21.197 22.125,29.306c8.219,5.219 17.547,8.022 26.978,8.372c9.431,0.35 18.962,-1.753 27.581,-6.344c1.238,4.525 3.113,10.2 6.013,16.453c2.9,6.25 6.825,13.082 12.172,19.913c3.006,3.844 6.078,7.2 9.071,10.116c2.991,2.918 5.9,5.396 8.575,7.481" style="fill:#e2dcfe;fill-rule:nonzero;stroke:#070707;stroke-width:9.38px;"/><path d="M542.785,1900.92c21.275,-25.934 42.553,-51.872 63.831,-77.806c21.275,-25.934 42.553,-51.872 63.828,-77.806" style="fill:#f6c34c;fill-rule:nonzero;stroke:#070707;stroke-width:9.38px;"/><path d="M1082.86,899.552c0,-0 2.779,6.268 9.3,11.056c6.525,4.784 16.791,8.09 31.772,2.162" style="fill:none;fill-rule:nonzero;stroke:#000;stroke-width:9.38px;"/><path d="M1818.05,1291.5c3.728,-7.009 8.965,-13.091 15.237,-17.775c6.272,-4.684 13.578,-7.972 21.441,-9.394c8.331,-1.509 16.709,-0.793 24.565,1.691c7.857,2.484 15.191,6.737 21.429,12.303" style="fill:none;fill-rule:nonzero;stroke:#000;stroke-width:9.37px;"/><path d="M684.807,2151.07c-2.328,2.622 -5.997,7.119 -9.406,13.338c-3.41,6.215 -6.56,14.153 -7.86,23.656c-0.725,5.303 -0.75,10.184 -0.415,14.478c0.337,4.297 1.031,8.009 1.75,10.969" style="fill:none;fill-rule:nonzero;stroke:#000;stroke-width:9.38px;"/><path d="M649.284,2138.36c-0,-0 -5.175,5.519 -9.71,15.272c-4.531,9.753 -8.422,23.74 -5.853,40.675" style="fill:none;fill-rule:nonzero;stroke:#000;stroke-width:9.38px;"/><path d="M540.176,2146.31c0.462,-2.659 1.146,-5.675 2.19,-8.919c1.041,-3.247 2.435,-6.718 4.313,-10.284c4.631,-8.8 10.687,-15.322 16.415,-20.05c5.725,-4.728 11.119,-7.659 14.419,-9.272" style="fill:none;fill-rule:nonzero;stroke:#000;stroke-width:9.38px;"/><path d="M519.088,2120.21c0.734,-3.038 1.909,-7.044 3.841,-11.566c1.931,-4.522 4.622,-9.556 8.387,-14.653c4.285,-5.8 8.931,-10.284 13.222,-13.703c4.291,-3.416 8.228,-5.766 11.091,-7.297" style="fill:none;fill-rule:nonzero;stroke:#000;stroke-width:9.38px;"/><defs><linearGradient id="_Linear1" x1="0" y1="0" x2="1" y2="0" gradientUnits="userSpaceOnUse" gradientTransform="matrix(0,173.211,-173.211,0,2079.62,1521.2)"><stop offset="0" style="stop-color:#fec2d9;stop-opacity:1"/><stop offset="0.26" style="stop-color:#fec2d9;stop-opacity:1"/><stop offset="0.75" style="stop-color:#a4c2ff;stop-opacity:1"/><stop offset="1" style="stop-color:#a4c2ff;stop-opacity:1"/></linearGradient><linearGradient id="_Linear2" x1="0" y1="0" x2="1" y2="0" gradientUnits="userSpaceOnUse" gradientTransform="matrix(0,211.362,-211.362,0,352.611,628.078)"><stop offset="0" style="stop-color:#fec2d9;stop-opacity:1"/><stop offset="0.31" style="stop-color:#fec2d9;stop-opacity:1"/><stop offset="0.75" style="stop-color:#a4c2ff;stop-opacity:1"/><stop offset="1" style="stop-color:#a4c2ff;stop-opacity:1"/></linearGradient><linearGradient id="_Linear3" x1="0" y1="0" x2="1" y2="0" gradientUnits="userSpaceOnUse" gradientTransform="matrix(0,182.958,-182.958,0,2154.77,398.367)"><stop offset="0" style="stop-color:#fec2d9;stop-opacity:1"/><stop offset="0.31" style="stop-color:#fec2d9;stop-opacity:1"/><stop offset="0.88" style="stop-color:#a4c2ff;stop-opacity:1"/><stop offset="1" style="stop-color:#a4c2ff;stop-opacity:1"/></linearGradient><linearGradient id="_Linear4" x1="0" y1="0" x2="1" y2="0" gradientUnits="userSpaceOnUse" gradientTransform="matrix(0,109.594,-109.594,0,227.513,851.24)"><stop offset="0" style="stop-color:#fec2d9;stop-opacity:1"/><stop offset="0.31" style="stop-color:#fec2d9;stop-opacity:1"/><stop offset="0.75" style="stop-color:#a4c2ff;stop-opacity:1"/><stop offset="1" style="stop-color:#a4c2ff;stop-opacity:1"/></linearGradient><linearGradient id="_Linear5" x1="0" y1="0" x2="1" y2="0" gradientUnits="userSpaceOnUse" gradientTransform="matrix(0,68.5547,-68.5547,0,2170.54,1721.32)"><stop offset="0" style="stop-color:#fec2d9;stop-opacity:1"/><stop offset="0.22" style="stop-color:#fec2d9;stop-opacity:1"/><stop offset="0.75" style="stop-color:#a4c2ff;stop-opacity:1"/><stop offset="1" style="stop-color:#a4c2ff;stop-opacity:1"/></linearGradient></defs></svg>