<?xml version="1.0" encoding="UTF-8" standalone="no"?><!DOCTYPE svg PUBLIC "-//W3C//DTD SVG 1.1//EN" "http://www.w3.org/Graphics/SVG/1.1/DTD/svg11.dtd"><svg width="100%" height="100%" viewBox="0 0 1094 1094" version="1.1" xmlns="http://www.w3.org/2000/svg" xmlns:xlink="http://www.w3.org/1999/xlink" xml:space="preserve" xmlns:serif="http://www.serif.com/" style="fill-rule:evenodd;clip-rule:evenodd;"><clipPath id="_clip1"><rect x="0" y="0" width="1093.75" height="1093.75"/></clipPath><g clip-path="url(#_clip1)"><g><path d="M1080.58,546.175c0,295.144 -239.26,534.404 -534.404,534.404c-295.143,0 -534.404,-239.26 -534.404,-534.404c0,-295.143 239.261,-534.404 534.404,-534.404c295.144,0 534.404,239.261 534.404,534.404Z" style="fill:#f5f5f5;fill-rule:nonzero;stroke:#14151e;stroke-width:23.54px;"/><path d="M537.654,211.11c0.782,-10.551 16.261,-10.551 17.043,0l13.653,184.024c1.556,20.973 28.267,28.823 40.922,12.029l111.081,-147.406c6.367,-8.449 19.384,-0.073 14.331,9.224l-88.067,162.059c-10.046,18.485 8.187,39.547 27.921,32.254l173.077,-63.967c9.925,-3.67 16.35,10.416 7.072,15.507l-161.676,88.703c-18.452,10.124 -14.489,37.712 6.067,42.232l180.128,39.617c10.334,2.272 8.134,17.598 -2.423,16.87l-184.038,-12.673c-20.993,-1.445 -32.56,23.907 -17.709,38.815l130.152,130.65c7.468,7.496 -2.662,19.201 -11.152,12.888l-148.097,-110.13c-16.877,-12.551 -40.298,2.515 -35.874,23.079l38.803,180.357c2.224,10.343 -12.626,14.71 -16.351,4.808l-65.015,-172.733c-7.407,-19.68 -35.246,-19.68 -42.653,0l-65.015,172.733c-3.727,9.902 -18.576,5.535 -16.351,-4.808l38.803,-180.357c4.424,-20.564 -18.997,-35.63 -35.876,-23.079l-148.096,110.13c-8.49,6.313 -18.621,-5.392 -11.153,-12.888l130.152,-130.65c14.852,-14.908 3.286,-40.26 -17.709,-38.815l-184.037,12.673c-10.557,0.728 -12.758,-14.598 -2.422,-16.87l180.128,-39.617c20.556,-4.52 24.519,-32.108 6.066,-42.232l-161.677,-88.703c-9.276,-5.09 -2.853,-19.177 7.073,-15.507l173.077,63.967c19.734,7.293 37.968,-13.769 27.921,-32.254l-88.068,-162.059c-5.052,-9.297 7.966,-17.673 14.333,-9.223l111.079,147.405c12.657,16.794 39.368,8.944 40.924,-12.029l13.653,-184.024Z" style="fill:#c6bef8;fill-rule:nonzero;stroke:#14151e;stroke-width:14.24px;"/></g></g><ellipse cx="562.993" cy="571.814" rx="401.084" ry="386.621" style="fill:#f5f5f5;"/><g><path d="M410.722,481.849l38.016,0l2.126,-85.628l1.523,-20.446l16.213,-22.444l19.24,-7.567l41.078,-8.498l41.461,2.782l45.6,4.673l18.69,15.195l10.398,31.87l1.188,31.646l-2.323,58.417l38.007,0l-0.579,-31.694l-0,-47.2l-0.786,-35.404l-7.346,-15.135l-15.044,-19.395l-19.458,-17.753l-25.197,-4.596l-37.443,-6.831l-45.786,0l-34.69,6.052l-31.938,1.438l-24.452,20.064l-17.459,20.822l-11.456,25.916l0.417,103.716Z" style="fill:#c6bef8;"/><clipPath id="_clip2"><rect x="349.205" y="259.83" width="419.657" height="283.192"/></clipPath><g clip-path="url(#_clip2)"><path d="M681.012,387.651c-0,-46.287 -37.523,-83.81 -83.809,-83.81c-32.658,0 -70.014,0 -102.672,0c-46.287,0 -83.809,37.523 -83.809,83.81c-0,73.206 -0,174.112 -0,215.925c-0,5.133 2.038,10.055 5.668,13.684c3.629,3.63 8.551,5.669 13.684,5.669c49.775,-0 181.811,-0 231.585,-0c5.133,-0 10.055,-2.039 13.685,-5.669c3.629,-3.629 5.668,-8.551 5.668,-13.684c-0,-41.813 -0,-142.719 -0,-215.925Z" style="fill:none;stroke:#000;stroke-width:15px;stroke-linecap:round;stroke-linejoin:round;stroke-miterlimit:1.5;"/></g><clipPath id="_clip3"><rect x="403.867" y="303.841" width="303.658" height="239.181"/></clipPath><g clip-path="url(#_clip3)"><path d="M643.957,391.551c0,-27.912 -22.626,-50.538 -50.538,-50.538c-29.058,-0 -65.444,-0 -94.502,-0c-27.911,-0 -50.538,22.626 -50.538,50.538c0,60.345 0,158.297 0,199.607c0,10.688 8.665,19.352 19.353,19.352c37.448,0 119.425,0 156.873,0c10.688,0 19.352,-8.664 19.352,-19.352c0,-41.31 0,-139.262 0,-199.607Z" style="fill:none;stroke:#000;stroke-width:15px;stroke-linecap:round;stroke-linejoin:round;stroke-miterlimit:1.5;"/></g><path d="M749.3,534.806c-0,-14.045 -5.58,-27.515 -15.511,-37.446c-9.931,-9.931 -23.401,-15.511 -37.446,-15.511c-77.877,0 -222.459,0 -300.336,0c-14.045,0 -27.515,5.58 -37.446,15.511c-9.932,9.931 -15.511,23.401 -15.511,37.446c-0,56.029 -0,143.923 -0,199.952c-0,14.045 5.579,27.515 15.511,37.446c9.931,9.931 23.401,15.511 37.446,15.511c77.877,-0 222.459,-0 300.336,-0c14.045,-0 27.515,-5.58 37.446,-15.511c9.931,-9.931 15.511,-23.401 15.511,-37.446c-0,-56.029 -0,-143.923 -0,-199.952Z" style="fill:#eae6fe;stroke:#000;stroke-width:15px;stroke-linecap:round;stroke-linejoin:round;stroke-miterlimit:1.5;"/><path d="M528.534,633.6c-10.671,-6.218 -17.864,-17.898 -17.864,-31.268c0,-19.886 15.909,-36.03 35.505,-36.03c19.595,-0 35.504,16.144 35.504,36.03c0,13.37 -7.193,25.05 -17.864,31.268l9.429,70.612l-54.292,0.175l9.582,-70.787Z" style="fill:#c6bef8;stroke:#000;stroke-width:15px;stroke-linecap:round;stroke-linejoin:round;stroke-miterlimit:1.5;"/></g></svg>