<?xml version="1.0" encoding="UTF-8" standalone="no"?><!DOCTYPE svg PUBLIC "-//W3C//DTD SVG 1.1//EN" "http://www.w3.org/Graphics/SVG/1.1/DTD/svg11.dtd"><svg width="100%" height="100%" viewBox="0 0 7005 2188" version="1.1" xmlns="http://www.w3.org/2000/svg" xmlns:xlink="http://www.w3.org/1999/xlink" xml:space="preserve" xmlns:serif="http://www.serif.com/" style="fill-rule:evenodd;clip-rule:evenodd;stroke-linejoin:round;stroke-miterlimit:2;"><rect x="0" y="462.385" width="1039.76" height="1262.73" style="fill:none;"/><clipPath id="_clip1"><rect x="0" y="462.385" width="1039.76" height="1262.73"/></clipPath><g clip-path="url(#_clip1)"><path d="M600.104,1709.62c32.349,19.692 72.735,20.675 106.003,2.58c79.23,-43.094 227.108,-123.528 311.727,-169.554c13.168,-7.162 21.518,-20.802 21.908,-35.787c0.39,-14.985 -7.239,-29.041 -20.016,-36.879c-179.567,-110.151 -698.627,-428.558 -868.038,-532.479c-11.794,-7.235 -19.077,-19.992 -19.312,-33.827c-0.234,-13.835 6.613,-26.831 18.155,-34.462c113.193,-74.827 374.72,-247.711 455.36,-301.019c14.829,-9.803 33.87,-10.577 49.446,-2.01c55.033,30.27 186.705,102.694 263.263,144.803c11.995,6.597 19.58,19.073 19.915,32.759c0.336,13.685 -6.627,26.518 -18.284,33.696c-91.953,56.621 -274.001,168.719 -371.64,228.841c-13.888,8.552 -22.303,23.736 -22.194,40.046c0.11,16.31 8.728,31.379 22.73,39.743c69.209,41.345 173.947,103.916 218.513,130.539c13.085,7.817 29.425,7.737 42.433,-0.209c43.237,-26.411 141.525,-86.451 187.491,-114.528c15.269,-9.328 24.641,-25.878 24.785,-43.77c0.539,-67.026 1.89,-235.044 2.651,-329.636c0.334,-41.574 -22.044,-80.017 -58.36,-100.257c-73.646,-41.044 -198.942,-110.873 -272.36,-151.79c-35.932,-20.026 -79.995,-18.532 -114.489,3.881c-116.567,75.744 -384.703,249.975 -511.292,332.23c-42.752,27.78 -68.537,75.311 -68.513,126.296c0.041,88.162 0.106,227.984 0.148,318.255c0.025,54.234 28.308,104.536 74.634,132.737c133.49,81.263 410.031,249.608 525.336,319.801Z" style="fill:#fff;"/></g><text x="1663.3px" y="1351.6px" style="font-family:'SpaceGrotesk-Bold', 'Space Grotesk';font-weight:700;font-size:1031.4px;fill:#fff;">push v<tspan x="4947.29px " y="1351.6px ">a</tspan>lue</text></svg>